<svg width="74" height="74" viewBox="0 0 74 74" fill="none" xmlns="http://www.w3.org/2000/svg">
<g clip-path="url(#clip0_5378_248)">
<rect width="74" height="74" rx="16" fill="white"/>
<g clip-path="url(#clip1_5378_248)">
<rect width="74" height="74" rx="16" fill="url(#paint0_linear_5378_248)"/>
<path fill-rule="evenodd" clip-rule="evenodd" d="M23.2201 36.9656H27.7082C30.6232 36.9656 31.0583 38.3905 31.0583 39.2399C31.0583 40.9972 29.4704 41.9649 26.5871 41.9649C25.4638 41.9649 24.2183 41.7229 23.2201 41.3139V36.9656ZM32.925 39.1897C32.925 36.7411 30.9774 35.2201 27.842 35.2201H21.3367V47.4001H23.2201V43.1397C24.1292 43.4956 25.3897 43.7104 26.6204 43.7104C30.5681 43.7104 32.925 42.0205 32.925 39.1897Z" fill="white"/>
<path fill-rule="evenodd" clip-rule="evenodd" d="M41.2811 42.4658H35.8496L38.5581 37.192L41.2811 42.4658ZM38.6743 35.2201H37.6207L31.2729 47.4001H33.3208L34.9603 44.2113H42.1878L43.8276 47.4001H45.8768L39.8307 35.887C39.5865 35.4196 39.2407 35.2201 38.6743 35.2201Z" fill="white"/>
<path fill-rule="evenodd" clip-rule="evenodd" d="M52.5239 40.4324L51.5204 40.2655C49.1642 39.8706 48.6812 39.2896 48.6812 38.5388C48.6812 37.478 50.0882 36.7654 52.182 36.7654C54.1423 36.7654 55.4381 37.1823 56.0361 37.4309L56.2758 37.5305L56.899 35.8033L56.6674 35.7192C55.9477 35.458 54.4274 35.0199 52.3328 35.0199C49.0223 35.0199 46.7979 36.4608 46.7979 38.6055C46.7979 40.9899 49.2746 41.6778 51.1376 41.9876L52.1416 42.1545C54.4481 42.5407 55.4322 43.1021 55.4322 44.0313C55.4322 45.2009 54.1318 45.8717 51.8662 45.8717C49.4182 45.8546 47.6406 45.1734 47.2051 44.8654L46.9377 44.6759L46.3271 46.4092L46.4989 46.5129C47.1769 46.9231 49.0354 47.6172 51.6969 47.6172C55.2154 47.6172 57.3155 46.2455 57.3155 43.9479C57.3155 41.5421 54.7551 40.8053 52.5239 40.4324Z" fill="white"/>
<path fill-rule="evenodd" clip-rule="evenodd" d="M64.3828 40.4324L63.3793 40.2655C61.0227 39.8706 60.5401 39.2896 60.5401 38.5388C60.5401 37.478 61.9471 36.7654 64.0409 36.7654C66.0004 36.7654 67.2966 37.1823 67.8946 37.4309L68.1346 37.5305L68.7575 35.8033L68.5259 35.7192C67.8066 35.458 66.2867 35.0199 64.1912 35.0199C60.8808 35.0199 58.6564 36.4608 58.6564 38.6055C58.6564 40.9899 61.1334 41.6778 62.9965 41.9876L64 42.1545C66.3065 42.5407 67.2907 43.102 67.2907 44.0313C67.2907 45.2009 65.9903 45.8717 63.7246 45.8717C61.277 45.8546 59.4991 45.1734 59.064 44.8654L58.7962 44.6759L58.1856 46.4092L58.3574 46.5129C59.0358 46.9231 60.8938 47.6172 63.5558 47.6172C67.0738 47.6172 69.174 46.2455 69.174 43.9479C69.174 41.5421 66.6135 40.8053 64.3828 40.4324Z" fill="white"/>
<path fill-rule="evenodd" clip-rule="evenodd" d="M30.8137 31.2532H32.1933L30.0447 27.029C29.932 26.8211 29.8206 26.7417 29.5633 26.7417H28.377L26.116 31.2532H27.4943L27.8954 30.4214H30.429L30.8137 31.2532ZM42.12 31.2532H43.4828L41.3334 27.029C41.2218 26.8211 41.1097 26.7417 40.8533 26.7417H39.6665L37.4051 31.2532H38.7843L39.1852 30.4214H41.7191L42.12 31.2532ZM46.9781 30.1495C47.027 30.3094 47.219 30.4214 47.4275 30.4214H48.7266L49.6889 27.7663L50.6027 31.2532H51.821L50.8112 27.254C50.716 26.854 50.4907 26.7417 50.1222 26.7417H48.8546L47.9416 29.3819L47.219 27.1408C47.1234 26.854 46.9465 26.7417 46.6581 26.7417H45.2313L44.0601 31.2532H45.2953L46.1923 27.7663L46.9781 30.1495ZM41.2706 29.5091H39.5861L40.4368 27.7016L41.2706 29.5091ZM29.9801 29.5091H28.2966L29.147 27.7016L29.9801 29.5091ZM25.1537 31.2532L25.6666 30.2129H22.6353V26.7417H21.3367V31.2532H25.1537ZM34.1661 31.2532H35.416V27.7815L37.5978 27.6375V26.7417H31.9848V27.6375L34.1661 27.7815V31.2532Z" fill="white"/>
<path fill-rule="evenodd" clip-rule="evenodd" d="M17.3759 30.0827C17.7247 30.2042 17.5762 30.453 16.8223 30.7281C16.4549 30.8601 8.90119 33.5878 6.08109 34.6076V34.6068C6.00667 34.6334 5.93786 34.659 5.87204 34.6835C5.60766 34.7776 5.39785 34.8543 5.25854 34.9055C4.9627 34.9938 4.83923 34.9636 4.82605 34.6887C4.82605 34.8598 4.82605 35.2128 5.12901 35.3203L7.59086 36.2128C7.59086 36.2128 7.7663 36.2665 7.93163 36.2083C8.33566 36.066 9.97194 35.4676 17.245 32.8333C17.6907 32.6719 17.7096 32.3182 17.7096 31.2457C17.7096 30.2441 17.7081 30.1982 17.3759 30.0827ZM12.8592 40.4439C12.8592 39.9716 12.9108 39.5708 12.4892 39.7217L7.85309 41.4025V43.6719L12.3859 42.0306C12.8309 41.8689 12.8592 41.5571 12.8592 41.0832V40.4439ZM10.0334 45.1914C10.0334 44.7196 10.0855 44.3157 9.66385 44.4648L7.85309 45.1222V47.3856L9.61201 46.7477C10.0506 46.5883 10.0334 46.1463 10.0334 45.734V45.1914ZM7.85107 39.9606V37.6855C16.3639 34.5998 16.3636 34.5998 16.8223 34.4319C17.5762 34.1598 17.7039 33.8984 17.3717 33.779C17.7104 33.9005 17.7104 33.94 17.7104 34.9415C17.7104 36.0137 17.6969 36.3882 17.2513 36.5498L7.85107 39.9606Z" fill="white"/>
<path fill-rule="evenodd" clip-rule="evenodd" d="M9.75654 33.2827L12.8874 32.1486C12.8874 32.1486 6.44894 29.8142 5.31763 29.4052C5.0447 29.3065 4.82605 29.1968 4.82605 29.4882V30.6345C4.82605 31.2778 5.14741 31.5997 5.76263 31.8309L9.75654 33.2827ZM14.8793 35.1384C14.8793 35.1384 16.6857 34.4833 16.8223 34.4338C17.5762 34.1598 17.7039 33.8983 17.3717 33.7789C17.3892 33.7855 17.4036 33.7908 17.4174 33.7963C17.3877 33.7807 17.3546 33.7687 17.3168 33.7543C17.2076 33.715 16.0115 33.281 16.0115 33.281L12.8821 34.4154L14.8793 35.1384Z" fill="#ED1650"/>
<path fill-rule="evenodd" clip-rule="evenodd" d="M4.82639 34.689C4.83944 34.964 4.9627 34.9938 5.25854 34.9055C5.39785 34.8543 5.60766 34.7776 5.87204 34.6835C5.93786 34.659 6.00667 34.6334 6.08109 34.6068V34.6076C6.54053 34.4416 7.1256 34.2302 7.78496 33.9918C6.68944 33.595 5.7943 33.27 5.31763 33.0946C5.04537 32.9944 4.82605 32.8822 4.82605 33.1733V34.6839C4.82605 34.7173 4.82727 34.7487 4.82929 34.7785C4.82841 34.7456 4.82639 34.7152 4.82639 34.689Z" fill="#ED1650"/>
<path fill-rule="evenodd" clip-rule="evenodd" d="M8.80806 29.2513L14.8511 31.439C15.9214 31.0528 16.7048 30.7703 16.8223 30.7281C17.5678 30.4559 17.7206 30.2102 17.3864 30.0867C14.4545 29.0306 9.47377 27.2278 8.34204 26.8118C8.06966 26.7115 7.85021 26.5993 7.85021 26.8905V28.0345C7.85021 28.6781 8.19275 29.0204 8.80806 29.2513Z" fill="#ED1650"/>
</g>
</g>
<defs>
<linearGradient id="paint0_linear_5378_248" x1="40.2174" y1="15.7652" x2="7.51562" y2="72.5547" gradientUnits="userSpaceOnUse">
<stop offset="0.379898" stop-color="#100051"/>
<stop offset="1" stop-color="#AC0E3C"/>
</linearGradient>
<clipPath id="clip0_5378_248">
<rect width="74" height="74" rx="16" fill="white"/>
</clipPath>
<clipPath id="clip1_5378_248">
<rect width="74" height="74" fill="white"/>
</clipPath>
</defs>
</svg>
