<svg width="45" height="46" viewBox="0 0 45 46" fill="none" xmlns="http://www.w3.org/2000/svg" focusable="false" role="presentation" aria-hidden="true">
<path d="M22.5512 0.203125H22.4488C10.0507 0.203125 0 10.2538 0 22.6519V22.7544C0 35.1525 10.0507 45.2031 22.4488 45.2031H22.5512C34.9493 45.2031 45 35.1525 45 22.7544V22.6519C45 10.2538 34.9493 0.203125 22.5512 0.203125Z" fill="#7ECF1C" />
<path d="M28.2829 11.8166H16.9043C13.7608 11.8166 11.2034 14.3747 11.2034 17.5192V27.932C11.2034 31.0764 13.7608 33.6345 16.9043 33.6345H28.2829C31.4264 33.6345 33.9838 31.0764 33.9838 27.932V17.5192C33.9838 14.3747 31.4264 11.8166 28.2829 11.8166ZM13.2145 17.5192C13.2145 15.4843 14.87 13.8283 16.9043 13.8283H28.2829C30.3172 13.8283 31.9727 15.4843 31.9727 17.5192V27.932C31.9727 29.9668 30.3172 31.6228 28.2829 31.6228H16.9043C14.87 31.6228 13.2145 29.9668 13.2145 27.932V17.5192Z" fill="#012D2A" />
<path d="M22.5936 28.0286C25.5168 28.0286 27.8963 25.6496 27.8963 22.7242C27.8963 19.7988 25.5181 17.4199 22.5936 17.4199C19.669 17.4199 17.2908 19.7988 17.2908 22.7242C17.2908 25.6496 19.669 28.0286 22.5936 28.0286ZM22.5936 19.4328C24.4088 19.4328 25.8853 20.9097 25.8853 22.7255C25.8853 24.5413 24.4088 26.0182 22.5936 26.0182C20.7783 26.0182 19.3019 24.5413 19.3019 22.7255C19.3019 20.9097 20.7783 19.4328 22.5936 19.4328Z" fill="#012D2A" />
<path d="M28.387 18.2764C29.174 18.2764 29.8155 17.636 29.8155 16.8474C29.8155 16.0589 29.1753 15.4185 28.387 15.4185C27.5986 15.4185 26.9584 16.0589 26.9584 16.8474C26.9584 17.636 27.5986 18.2764 28.387 18.2764Z" fill="#012D2A" />
</svg>
