<svg xmlns="http://www.w3.org/2000/svg" width="200" height="61" viewBox="0 0 200 61" fill="none" ><path d="M129.669 47.129v13.726h2.162V47.129h-2.162zm37.725 0v13.726h11.085v-2.002h-8.924v-4.294h7.771v-1.857h-7.771v-3.715h8.632V47.13h-10.793zm-91.428 0v13.726h2.161V47.129h-2.161zm35.696 13.739h10.078v-1.857h-7.916V47.142h-2.162v13.726zm-16.548-6.007c-1.578 0-3.169-.435-4.177-1.001v-5.15h5.622c2.732 0 3.739 1.436 3.739 2.714 0 1.857-1.445 3.438-5.184 3.438zm-33.402.566h-6.338l3.169-6.442 3.169 6.442zm82.782 5.44V49.566l9.507 10.723c.292.435.716.566 1.3.566h1.299V47.129h-2.015v10.868l-9.362-10.301c-.292-.435-.57-.567-1.299-.567h-1.446v13.726h2.016v.013zm-53.557 0v-5.006c1.008.566 2.453.856 4.031.856.862 0 1.445 0 2.161-.145l2.878 4.294h2.307l-3.169-4.861c2.015-.856 3.315-2.569 3.315-4.571 0-2.569-2.162-4.439-6.047-4.439h-7.638v13.871h2.161zm-26.639 0h2.161l-6.484-13.16c-.292-.435-.57-.566-1.008-.566h-1.578l-6.763 13.726h2.148l1.724-3.57h8.062l1.737 3.57zm130.015-14.029c-3.74 0-6.193 1.581-6.193 4.005 0 2.292 1.87 3.148 4.893 3.715l1.445.29c2.162.435 3.315 1.146 3.315 2.292s-1.153 2.002-4.031 2.002c-2.585 0-4.614-.856-5.184-1.291l-.57 2.002c.57.29 2.585 1.146 5.609 1.146 4.031 0 6.338-1.568 6.338-4.005 0-2.292-2.016-3.438-5.185-4.004l-1.445-.29c-2.307-.435-3.023-.856-3.023-2.002s1.299-2.002 3.885-2.002c2.161 0 3.739.435 4.468.711l.438-1.712c-.875-.277-2.453-.856-4.76-.856zm-80.158-14.7h6.073V15.33l10.608-.698v-4.334h-27.289v4.334l10.608.698v16.808zm-43.837 0l2.493-5.032H58.079V10.298h-6.312v21.84h18.551zm23.47-8.444h-8.181l4.137-8.747 4.044 8.747zm54.909 0h-8.194l4.137-8.747 4.057 8.747zm27.753 3.109c.239.777 1.167 1.317 2.188 1.317h6.312l4.681-12.857 4.442 16.888H200l-4.906-19.364c-.464-1.936-1.565-2.476-3.355-2.476h-6.166l-4.442 12.778-3.514-10.854c-.464-1.383-1.326-1.936-2.731-1.936h-6.935l-5.689 21.84h6.007l4.363-16.887 3.818 11.553zm-23.629 5.335h6.63l-10.449-20.457c-.543-1.001-1.087-1.396-2.334-1.396H140.9l-11.005 21.854h6.709l1.949-4.031h12.319l1.949 4.031zm-54.976 0h6.71L94.106 11.694c-.544-1.001-1.087-1.396-2.347-1.396h-5.768l-10.992 21.84h6.696l1.949-4.031h12.319l1.883 4.031zM8.964 54.322l5.384-1.95c1.127-.408 1.127.487 1.127 1.831v2.463c0 1.989-.676 2.226-1.565 2.556L8.977 61v-6.679h-.013zm0-10.907l13.684-4.953c1.127-.408 1.127.487 1.127 1.831v2.45c0 2.002-.676 2.239-1.565 2.569L8.977 50.093v-6.679h-.013zM7.85 27.857L.902 25.341C0 25.025 0 23.813 0 23.366c0 0 0 1.462 1.339.975l34.078-12.316c2.692-.975 2.692-1.726 1.565-2.134 1.127.408 1.127.408 1.127 3.675 0 3.122 0 4.163-1.339 4.65l-26.679 9.642c-1.127.408-1.127.408-2.241 0zm29.146-7.06c1.127.408 1.127 1.159-1.565 2.134L8.964 32.494v6.679L36.77 29.122c1.339-.487 1.339-1.528 1.339-4.65 0-3.267 0-3.267-1.114-3.675z" fill="#1b0088"/><g fill="#ed1650"><path d="M2.917 15.159l11.908 4.308 9.242-3.346L1.79 8.072C.225 7.505 0 7.426 0 8.546v2.898c0 2.661 2.016 3.399 2.917 3.715zm34.079 5.638l-3.7-1.33-9.242 3.346 5.848 2.121 5.516-1.989c2.692-.988 2.692-1.739 1.578-2.147z"/><path d="M36.996 9.89L10.767.405C9.189-.161 8.964-.24 8.964.866v2.898c0 2.674 2.016 3.399 2.917 3.728l18.034 6.521 5.516-1.989c2.678-.975 2.678-1.726 1.565-2.134zM1.339 24.34l7.624-2.753-7.174-2.595C.225 18.426 0 18.334 0 19.453v3.912s0 1.462 1.339.975z"/></g></svg>