<svg xmlns="http://www.w3.org/2000/svg" width="30" height="48" viewBox="0 0 30 48" fill="none" ><path d="M7.053 42.732l4.232-1.525c.88-.319.88.388.88 1.442v1.941c0 1.567-.531 1.761-1.229 2.01L7.053 48v-5.269zm0-8.583l10.768-3.896c.88-.319.88.388.88 1.442v1.927c0 1.567-.531 1.761-1.229 2.024L7.067 39.404v-5.255h-.014zm-.88-12.228L.712 19.938C0 19.689 0 18.732 0 18.386c0 0 0 1.151 1.061.762l26.83-9.691c2.123-.763 2.123-1.359 1.229-1.678.88.319.88.319.88 2.898 0 2.454 0 3.272-1.061 3.66L7.947 21.921c-.894.319-.894.319-1.774 0zm22.947-5.56c.88.319.88.915-1.229 1.678L7.053 25.567v5.255l21.885-7.903C30 22.531 30 21.713 30 19.259c0-2.579 0-2.579-.88-2.898z" fill="#1b0088"/><g fill="#ed1650"><path d="M2.291 11.925l9.372 3.383 7.277-2.634L1.411 6.351C.182 5.907 0 5.838 0 6.725v2.274c0 2.094 1.592 2.676 2.291 2.925zm26.829 4.436l-2.905-1.054-7.276 2.634 4.609 1.664 4.344-1.567C30 17.276 30 16.68 29.12 16.361z"/><path d="M29.12 7.779L8.478.32C7.249-.124 7.067-.193 7.067.68v2.274c0 2.107 1.592 2.676 2.291 2.925l14.19 5.13 4.344-1.567C30 8.694 30 8.098 29.12 7.779zM1.061 19.148l6.006-2.163-5.642-2.038C.182 14.49 0 14.434 0 15.308v3.078s0 1.137 1.061.762z"/></g></svg>