<?xml version="1.0" encoding="UTF-8" standalone="no"?>
<svg
   xmlns:dc="http://purl.org/dc/elements/1.1/"
   xmlns:cc="http://creativecommons.org/ns#"
   xmlns:rdf="http://www.w3.org/1999/02/22-rdf-syntax-ns#"
   xmlns:svg="http://www.w3.org/2000/svg"
   xmlns="http://www.w3.org/2000/svg"
   xmlns:sodipodi="http://sodipodi.sourceforge.net/DTD/sodipodi-0.dtd"
   xmlns:inkscape="http://www.inkscape.org/namespaces/inkscape"
   viewBox="0 0 1000 169.41891"
   fill="default"
   scroll="scrolled"
   class="css-19duixq e1vu2noe0"
   version="1.1"
   id="svg15553"
   sodipodi:docname="A.svg"
   width="1000"
   height="169.41891"
   inkscape:version="0.92.4 (5da689c313, 2019-01-14)">
  <metadata
     id="metadata15557">
    <rdf:RDF>
      <cc:Work
         rdf:about="">
        <dc:format>image/svg+xml</dc:format>
        <dc:type
           rdf:resource="http://purl.org/dc/dcmitype/StillImage" />
        <dc:title></dc:title>
      </cc:Work>
    </rdf:RDF>
  </metadata>
  <sodipodi:namedview
     pagecolor="#ffffff"
     bordercolor="#666666"
     borderopacity="1"
     objecttolerance="10"
     gridtolerance="10"
     guidetolerance="10"
     inkscape:pageopacity="0"
     inkscape:pageshadow="2"
     inkscape:window-width="1920"
     inkscape:window-height="1017"
     id="namedview15555"
     showgrid="false"
     fit-margin-top="0"
     fit-margin-left="0"
     fit-margin-right="0"
     fit-margin-bottom="0"
     inkscape:zoom="0.83585859"
     inkscape:cx="769.24823"
     inkscape:cy="106.82991"
     inkscape:window-x="1912"
     inkscape:window-y="-8"
     inkscape:window-maximized="1"
     inkscape:current-layer="g15551" />
  <defs
     id="defs15536">
    <path
       id="logo-getfeedback-2_svg__a"
       d="M 0.429,0.338 H 3.63 V 3.432 H 0.429 Z"
       inkscape:connector-curvature="0" />
  </defs>
  <g
     id="g15551"
     style="fill:none;fill-rule:evenodd"
     transform="translate(0,137.41892)">
    <path
       d="m 112.33528,-132.6857 a 84.497647,84.497647 0 0 0 -27.996463,-4.73314 c -7.655614,0 -15.078277,1.01651 -22.130337,2.92247 -22.320932,6.02496 -44.631275,24.3222 -50.571523,47.289038 -2.6471698,10.218074 -2.2977434,20.849106 2.964829,30.177731 0.974159,1.736543 2.064792,3.398966 3.271902,4.987267 a 44.149491,44.149491 0 0 0 12.558171,11.308708 43.678295,43.678295 0 0 0 33.290802,4.944912 43.87948,43.87948 0 0 0 30.061256,-26.005792 H 70.891196 a 1.8106639,1.8106639 0 0 1 -1.810664,-1.821252 v -15.184164 c 0,-1.005924 0.80474,-1.821252 1.810664,-1.821252 h 54.055194 c 1.00593,0 1.82126,0.815328 1.82126,1.821252 v 57.221214 c 0,1.005924 -0.81533,1.821252 -1.82126,1.821252 h -15.17357 a 1.8212525,1.8212525 0 0 1 -1.82125,-1.821252 V -47.902161 A 62.616145,62.616145 0 0 1 68.275793,-17.523245 62.377899,62.377899 0 0 1 20.743219,-24.60707 62.600262,62.600262 0 0 1 7.8038553,-34.899265 61.922586,61.922586 0 0 1 0,-44.820855 C 3.9813428,-1.7355266 40.215797,32 84.338817,32 c 46.791363,0 84.709423,-37.9286429 84.709423,-84.70942 0,-36.975662 -23.68687,-68.42403 -56.71296,-79.97628"
       id="path15538"
       inkscape:connector-curvature="0"
       style="fill:#238062;stroke-width:5.2943387" />
    <path
       d="m 248.36273,-42.835478 h 23.47509 v 17.280721 c -2.78482,2.117736 -6.0779,3.780158 -9.86864,5.071977 a 38.839269,38.839269 0 0 1 -12.26169,1.927139 c -4.70138,0 -8.94743,-0.836505 -12.73818,-2.498928 a 29.410052,29.410052 0 0 1 -9.80512,-6.861463 29.425935,29.425935 0 0 1 -6.37438,-10.355726 38.458077,38.458077 0 0 1 -2.21303,-13.140549 v -0.285895 c 0,-4.362535 0.77297,-8.523885 2.29774,-12.48405 a 32.576066,32.576066 0 0 1 6.28967,-10.302784 31.10424,31.10424 0 0 1 9.43452,-7.030881 26.815826,26.815826 0 0 1 11.76402,-2.636581 c 2.86953,0 5.5167,0.254128 7.92033,0.72003 a 35.260296,35.260296 0 0 1 6.62851,1.980083 c 2.01185,0.825916 3.9284,1.863607 5.77083,3.070716 1.46124,0.974158 2.89071,2.033026 4.299,3.208369 l 11.16047,-11.160466 0.14824,-0.180007 a 58.142428,58.142428 0 0 0 -7.28501,-5.304928 44.625981,44.625981 0 0 0 -7.92033,-3.875456 51.56686,51.56686 0 0 0 -9.12744,-2.435395 67.433993,67.433993 0 0 0 -10.95928,-0.825917 c -6.89323,0 -13.25703,1.260052 -19.0808,3.780158 a 47.257268,47.257268 0 0 0 -15.03592,10.302783 45.79603,45.79603 0 0 0 -9.84747,15.152397 47.839645,47.839645 0 0 0 -3.50485,18.223114 v 0.254129 c 0,6.744987 1.12239,12.97113 3.42014,18.710193 a 44.530683,44.530683 0 0 0 9.64628,14.951212 c 4.12959,4.24606 9.14862,7.549728 15.00416,9.9533574 5.85554,2.4142184 12.36757,3.6213277 19.53611,3.6213277 4.0237,0 7.86739,-0.3706037 11.54166,-1.1118112 a 59.688375,59.688375 0 0 0 10.30278,-3.0813051 c 3.18719,-1.3235847 6.16261,-2.8377658 8.92626,-4.5848978 2.75305,-1.75772 5.25198,-3.589561 7.53913,-5.516701 v -38.563963 h -39.0828 z m 63.48441,-2.228917 c 0.69885,-5.421403 2.64717,-9.815704 5.83436,-13.182904 3.19778,-3.35661 7.23207,-5.050799 12.13463,-5.050799 a 16.343624,16.343624 0 0 1 12.33581,5.315516 c 1.48241,1.620068 2.65775,3.536619 3.53662,5.77083 0.86827,2.234211 1.45064,4.616663 1.70477,7.147357 z m 42.95827,-20.076133 a 29.94478,29.94478 0 0 0 -10.36632,-8.121515 c -4.15076,-2.011849 -8.9792,-3.017773 -14.4959,-3.017773 -4.97668,0 -9.51922,0.942392 -13.63821,2.816588 a 33.079029,33.079029 0 0 0 -10.68398,7.740323 35.292062,35.292062 0 0 0 -7.02029,11.478127 39.162224,39.162224 0 0 0 -2.48834,14.029997 v 0.264717 c 0,5.336694 0.92121,10.218074 2.75305,14.622964 a 34.116719,34.116719 0 0 0 7.53914,11.351062 34.159074,34.159074 0 0 0 11.27694,7.3379537 37.007428,37.007428 0 0 0 13.97706,2.625992 c 6.37438,0 11.86991,-1.1859319 16.4548,-3.5472069 a 38.331013,38.331013 0 0 0 11.86991,-9.4345118 l -9.30745,-8.259168 c -2.806,2.700112 -5.64376,4.764904 -8.52388,6.16261 -2.89071,1.387117 -6.30027,2.096558 -10.22867,2.096558 -5.16727,0 -9.56157,-1.514181 -13.19349,-4.531954 -3.62133,-3.017773 -5.87671,-7.359131 -6.74499,-13.045251 h 50.8786 a 36.160334,36.160334 0 0 0 0.26472,-4.457833 c 0,-4.987267 -0.69886,-9.730994 -2.08597,-14.231182 a 35.763258,35.763258 0 0 0 -6.23673,-11.880497 z m 38.86574,-28.716493 h -15.99949 v 19.017265 H 366.5959 v 13.638216 h 11.07576 v 36.467406 c 0,3.854278 0.48707,7.052059 1.45064,9.635696 0.97416,2.583638 2.36128,4.659018 4.17194,6.2261427 a 16.41245,16.41245 0 0 0 6.40615,3.4201429 c 2.46717,0.6988527 5.1461,1.0376904 8.03681,1.0376904 2.97542,0 5.60141,-0.296483 7.86739,-0.9106263 a 26.895241,26.895241 0 0 0 6.42732,-2.625992 V -20.932799 a 21.664434,21.664434 0 0 1 -9.82629,2.361275 c -2.72129,0 -4.81785,-0.677675 -6.30026,-2.033026 -1.49301,-1.355351 -2.23421,-3.557796 -2.23421,-6.617923 V -61.20154 h 18.62548 v -13.638216 h -18.62548 z m 46.34664,11.017519 h 52.20218 V -97.398934 H 424.0183 v 91.8038344 h 15.99949 V -42.962543 h 40.42757 v -14.559431 h -40.42757 z m 63.48971,37.775107 c 0.69885,-5.421403 2.64717,-9.815704 5.83436,-13.182904 3.19778,-3.35661 7.23207,-5.050799 12.13463,-5.050799 2.62599,0 4.96608,0.487079 7.02029,1.450649 2.04361,0.952981 3.82251,2.2448 5.30493,3.864867 1.48241,1.620068 2.66834,3.536619 3.5472,5.77083 0.86827,2.234211 1.44006,4.616663 1.70478,7.147357 z m 42.95826,-20.076133 a 30.045372,30.045372 0 0 0 -10.36631,-8.121515 c -4.15076,-2.011849 -8.98979,-3.017773 -14.4959,-3.017773 -4.97668,0 -9.52981,0.942392 -13.63822,2.816588 a 32.967847,32.967847 0 0 0 -10.68397,7.740323 35.292062,35.292062 0 0 0 -7.0203,11.478127 39.162224,39.162224 0 0 0 -2.48834,14.029997 v 0.264717 c 0,5.336694 0.91063,10.218074 2.75306,14.622964 1.83184,4.426067 4.34136,8.195636 7.53914,11.351062 a 34.053187,34.053187 0 0 0 11.27694,7.3379537 c 4.33077,1.7471318 8.98979,2.625992 13.96647,2.625992 6.38497,0 11.8699,-1.1859319 16.46539,-3.5472069 a 38.331013,38.331013 0 0 0 11.86991,-9.4345118 l -9.30745,-8.259168 c -2.806,2.700112 -5.64377,4.764904 -8.53447,6.16261 -2.88012,1.387117 -6.28968,2.096558 -10.22867,2.096558 -5.15668,0 -9.55098,-1.514181 -13.1829,-4.531954 -3.62133,-3.017773 -5.87672,-7.359131 -6.75558,-13.045251 h 50.88919 a 36.160334,36.160334 0 0 0 0.26471,-4.457833 c 0,-4.987267 -0.69885,-9.730994 -2.09655,-14.231182 a 35.54619,35.54619 0 0 0 -6.22615,-11.880497 z m 30.43716,20.076133 c 0.69885,-5.421403 2.64717,-9.815704 5.83436,-13.182904 3.19778,-3.35661 7.23207,-5.050799 12.13462,-5.050799 2.626,0 4.96609,0.487079 7.0203,1.450649 2.04361,0.952981 3.82251,2.2448 5.30492,3.864867 1.48242,1.620068 2.66835,3.536619 3.54721,5.77083 0.86827,2.234211 1.44006,4.616663 1.70478,7.147357 z m 42.95826,-20.076133 a 30.045372,30.045372 0 0 0 -10.36631,-8.121515 c -4.15076,-2.011849 -8.9792,-3.017773 -14.4959,-3.017773 -4.97668,0 -9.52981,0.942392 -13.63822,2.816588 a 32.967847,32.967847 0 0 0 -10.68397,7.740323 35.292062,35.292062 0 0 0 -7.0203,11.478127 39.162224,39.162224 0 0 0 -2.48834,14.029997 v 0.264717 c 0,5.336694 0.91063,10.218074 2.75306,14.622964 1.83184,4.426067 4.34136,8.195636 7.53914,11.351062 a 34.053187,34.053187 0 0 0 11.27694,7.3379537 c 4.33077,1.7471318 8.98979,2.625992 13.96646,2.625992 6.38498,0 11.86991,-1.1859319 16.4654,-3.5472069 a 38.331013,38.331013 0 0 0 11.86991,-9.4345118 l -9.30745,-8.259168 c -2.806,2.700112 -5.64377,4.764904 -8.53448,6.16261 -2.88012,1.387117 -6.28967,2.096558 -10.22866,2.096558 -5.15668,0 -9.55099,-1.514181 -13.1829,-4.531954 -3.62133,-3.017773 -5.87672,-7.359131 -6.75558,-13.045251 h 50.88919 a 36.160334,36.160334 0 0 0 0.26471,-4.457833 c 0,-4.987267 -0.69885,-9.730994 -2.09656,-14.231182 a 35.54619,35.54619 0 0 0 -6.22614,-11.880497 z m 70.57354,25.052811 c 0,3.324845 -0.54532,6.353207 -1.63595,9.05332 a 22.538,22.538 0 0 1 -4.38372,7.020293 c -1.83184,1.958905 -3.96016,3.473086 -6.40614,4.521365 a 19.006676,19.006676 0 0 1 -7.5815,1.577713 c -2.70011,0 -5.25198,-0.529434 -7.64502,-1.577713 a 19.313748,19.313748 0 0 1 -6.34262,-4.457833 20.674393,20.674393 0 0 1 -4.32018,-7.020293 25.6246,25.6246 0 0 1 -1.56713,-9.116852 v -0.254128 c 0,-3.420143 0.52944,-6.501448 1.56713,-9.254504 1.04828,-2.753056 2.48834,-5.082565 4.32018,-7.020293 a 18.646661,18.646661 0 0 1 6.34262,-4.383713 19.541404,19.541404 0 0 1 15.22652,0.06353 c 2.44598,1.048279 4.5743,2.541283 6.40614,4.457834 1.83185,1.927139 3.29308,4.256648 4.38372,7.020293 1.09063,2.753056 1.63065,5.792006 1.63065,9.116851 v 0.254128 z M 690.17,-64.092249 a 38.902801,38.902801 0 0 0 -9.42392,-8.513296 c -3.75369,-2.456573 -8.46565,-3.674271 -14.13059,-3.674271 a 31.554259,31.554259 0 0 0 -11.9758,2.361275 29.66418,29.66418 0 0 0 -10.27101,6.946172 c -2.96483,3.060128 -5.3367,6.819108 -7.12618,11.276942 -1.78949,4.468422 -2.68953,9.582753 -2.68953,15.353582 v 0.254128 c 0,5.781418 0.92122,10.885161 2.75306,15.353583 1.84243,4.457833 4.24606,8.216814 7.22148,11.276941 a 30.124788,30.124788 0 0 0 10.22866,6.9567615 31.342485,31.342485 0 0 0 11.93344,2.3612751 c 5.60141,0 10.29219,-1.28123 14.09353,-3.8119239 a 35.763258,35.763258 0 0 0 9.51922,-9.1803837 l -0.13765,11.5416588 H 706.1642 V -101.33263 h -15.99949 v 37.240381 z m 81.79754,24.004532 c 0,3.409555 -0.52944,6.49086 -1.57242,9.254505 -1.04828,2.753056 -2.46717,5.071976 -4.25665,6.946172 a 19.260804,19.260804 0 0 1 -13.97706,5.972014 19.49905,19.49905 0 0 1 -14.15706,-6.035546 21.532076,21.532076 0 0 1 -4.40489,-7.020293 24.512788,24.512788 0 0 1 -1.63065,-9.116852 v -0.254128 c 0,-3.324845 0.54002,-6.342618 1.63065,-9.053319 1.10122,-2.710702 2.56246,-5.050799 4.40489,-7.020293 1.83184,-1.969494 3.97076,-3.473087 6.41674,-4.521366 a 19.49905,19.49905 0 0 1 7.74032,-1.577713 19.006676,19.006676 0 0 1 13.97706,6.035547 c 1.78948,1.927139 3.20837,4.256648 4.25665,7.020293 1.04828,2.753056 1.57771,5.792006 1.57771,9.116851 v 0.254128 z m 5.96671,-26.884652 a 30.453037,30.453037 0 0 0 -10.29219,-6.946172 31.146595,31.146595 0 0 0 -11.93344,-2.361275 c -5.60141,0 -10.28161,1.238875 -14.03,3.737803 a 34.286138,34.286138 0 0 0 -9.4451,9.243915 l 0.12707,-38.034532 H 716.3611 v 95.7428248 h 15.99949 V -16.347902 a 36.610353,36.610353 0 0 0 9.28627,8.5344745 c 3.74839,2.4353958 8.47094,3.6742711 14.13588,3.6742711 4.09782,0 8.08975,-0.7941508 11.9758,-2.3612751 a 30.643633,30.643633 0 0 0 10.33455,-6.9567615 c 3.00718,-3.060127 5.41081,-6.819108 7.2003,-11.276941 1.77889,-4.468422 2.67893,-9.572165 2.67893,-15.353583 v -0.254128 c 0,-5.770829 -0.92121,-10.88516 -2.75305,-15.353582 -1.84243,-4.457834 -4.26724,-8.216814 -7.28502,-11.276942 z m 62.35673,36.255632 c 0,2.181268 -0.45532,4.182528 -1.37653,5.961425 a 13.537624,13.537624 0 0 1 -3.87546,4.595487 c -1.65183,1.270641 -3.60015,2.255388 -5.82377,2.943652 -2.23421,0.709441 -4.65902,1.058868 -7.28501,1.058868 -3.75898,0 -6.93558,-0.878861 -9.50863,-2.625992 -2.58364,-1.747132 -3.87546,-4.277826 -3.87546,-7.61326 v -0.254128 c 0,-3.324845 1.39771,-5.950837 4.20371,-7.867387 2.79541,-1.92714 6.68145,-2.890709 11.66872,-2.890709 3.06013,0 5.97201,0.264717 8.72507,0.783562 2.75306,0.529434 5.13551,1.185932 7.14736,1.969494 z M 825.2127,-75.962156 c -5.68612,0 -10.54632,0.518845 -14.55943,1.567124 -4.0237,1.048279 -7.96269,2.445985 -11.80638,4.193117 l 4.33077,12.72759 a 67.873423,67.873423 0 0 1 9.30745,-3.144837 42.407653,42.407653 0 0 1 10.49338,-1.185932 c 5.50611,0 9.72041,1.270641 12.65347,3.801335 2.93306,2.541283 4.3943,6.215554 4.3943,11.022813 v 1.312996 a 62.917922,62.917922 0 0 0 -8.46035,-2.096558 c -2.93307,-0.529434 -6.49086,-0.794151 -10.68398,-0.794151 -4.0237,0 -7.7615,0.455314 -11.21341,1.376528 -3.4625,0.921215 -6.42733,2.318921 -8.92625,4.203705 -2.48834,1.884785 -4.43666,4.235471 -5.83437,7.083826 -1.3977,2.837765 -2.09655,6.183787 -2.09655,10.027477 v 0.264717 c 0,3.494264 0.67767,6.575569 2.03302,9.243916 1.35535,2.668346 3.14484,4.891969 5.37905,6.6920439 a 23.295091,23.295091 0 0 0 7.80386,4.0660522 c 2.96483,0.9212149 6.12025,1.3765281 9.4451,1.3765281 5.24139,0 9.69923,-0.9635697 13.3735,-2.890709 3.67427,-1.9165506 6.69204,-4.2778262 9.05332,-7.0732362 v 8.5132964 h 15.73477 V -46.716229 c 0,-9.275681 -2.48834,-16.465393 -7.47561,-21.579725 -4.98726,-5.114331 -12.63229,-7.666202 -22.94566,-7.666202 z m 84.7306,55.664678 c -2.84836,1.620067 -6.15202,2.424807 -9.90042,2.424807 -3.07071,0 -5.85553,-0.582377 -8.39682,-1.768309 a 20.594978,20.594978 0 0 1 -6.56498,-4.786083 21.516193,21.516193 0 0 1 -4.25665,-7.083825 24.602792,24.602792 0 0 1 -1.50359,-8.650949 v -0.264717 c 0,-2.975419 0.49767,-5.813184 1.50359,-8.523886 1.00593,-2.710701 2.38246,-5.050799 4.12959,-7.020293 1.74713,-1.969494 3.84369,-3.547207 6.30026,-4.72255 a 18.228408,18.228408 0 0 1 7.99445,-1.768309 c 4.0237,0 7.41208,0.804739 10.17572,2.424807 2.74247,1.620068 5.34728,3.695448 7.79327,6.226142 l 9.83688,-10.620443 a 38.447488,38.447488 0 0 0 -11.34047,-8.65095 c -4.33077,-2.191856 -9.77335,-3.28249 -16.32774,-3.28249 -5.15669,0 -9.95336,0.96357 -14.36884,2.890709 a 36.012092,36.012092 0 0 0 -11.45695,7.793267 35.47207,35.47207 0 0 0 -7.52855,11.541658 36.483288,36.483288 0 0 0 -2.72129,13.977055 v 0.254128 c 0,4.902558 0.91063,9.540398 2.72129,13.902934 1.80008,4.373123 4.30959,8.174459 7.52855,11.414594 a 35.895617,35.895617 0 0 0 11.39342,7.6767911 35.906205,35.906205 0 0 0 14.29471,2.8165882 c 6.7344,0 12.28287,-1.2071092 16.66658,-3.610739 a 43.365929,43.365929 0 0 0 11.66872,-9.3709793 l -9.57216,-9.445101 a 37.907466,37.907466 0 0 1 -8.06857,6.226143 m 89.14607,-54.621693 h -19.28198 l -28.72708,30.685987 v -57.178856 h -15.99949 v 95.7428197 h 15.99949 V -25.480636 l 9.70982,-10.101598 20.85969,29.9130137 H 1000 L 971.53763,-46.721523 Z"
       id="path15540"
       inkscape:connector-curvature="0"
       style="fill:#181a1f;stroke-width:5.2943387" />
  </g>
</svg>
