<?xml version="1.0" encoding="UTF-8"?>
<!-- Generator: Adobe Illustrator 27.2.0, SVG Export Plug-In . SVG Version: 6.00 Build 0)  -->
<svg xmlns="http://www.w3.org/2000/svg" xmlns:xlink="http://www.w3.org/1999/xlink" version="1.1" id="Layer_1" x="0px" y="0px" viewBox="0 0 98.99 98.99" style="enable-background:new 0 0 98.99 98.99;" xml:space="preserve">
<style type="text/css">
	.st0{fill:#1A1A1A;}
	.st1{fill:#FFFFFF;}
	.st2{fill:#EF4036;}
</style>
<g>
	<rect class="st0" width="98.99" height="98.99"></rect>
	<g>
		<path class="st1" d="M60.67,51.25c0.18,1.45-0.24,2.94-1.05,4.06c-0.06,3.38-2.17,5.77-6.84,5.77c-0.42,0-0.91,0-1.35,0    c-6.22,0-8.07-2.36-10.76-2.42c-0.22,0.83-0.97,1.45-1.88,1.45h-3.88c-1.07,0-1.94-0.87-1.94-1.94V43.64    c0-1.07,0.87-1.94,1.94-1.94h5.98c1.16-1.03,2.79-3.67,4.16-5.05c0.83-0.83,0.62-6.58,4.34-6.58c3.49,0,5.77,1.93,5.77,6.34    c0,1.11-0.24,2.04-0.54,2.82h2.21c2.94,0,5.2,2.52,5.2,5.18c0,1.16-0.3,2.12-0.83,3.02C61.5,48.8,61.27,50.13,60.67,51.25z     M36.86,54.78c-0.8,0-1.45,0.65-1.45,1.45s0.65,1.45,1.45,1.45s1.45-0.65,1.45-1.45S37.66,54.78,36.86,54.78z M57.79,46.72    c0.57,0,1.35-1.14,1.35-2.29c-0.01-1.15-1.01-2.29-2.29-2.29h-6.3c0-2.29,1.72-3.35,1.72-5.72c0-1.44,0-3.44-2.86-3.44    c-1.14,1.15-0.57,4.01-2.29,5.72c-1.61,1.61-4.01,5.9-5.72,5.9h-0.66v11.27c3.25,0,6.05,2.29,10.39,2.29h2.29    c2.15,0,3.68-1.04,3.22-3.99c0.92-0.49,1.6-2.21,0.84-3.49C58.79,49.46,58.61,47.6,57.79,46.72z"></path>
	</g>
	<rect x="33.86" y="68" class="st2" width="32.04" height="5"></rect>
</g>
</svg>
