<svg width="815" height="188" viewBox="0 0 815 188" fill="none" xmlns="http://www.w3.org/2000/svg">
<path d="M4.83838 69.752L78.2867 69.7667L122.948 69.7743V25.5285L4.83838 69.752Z" fill="#FF9D28"/>
<path d="M122.948 25.5285V181.738L178.73 4.63571L122.948 25.5285Z" fill="#68C5ED"/>
<path d="M122.948 69.7743L78.2867 69.7667L122.948 181.738V69.7743Z" fill="#044D80"/>
<path d="M4.83838 69.752L89.7396 98.4971L78.2867 69.7667L4.83838 69.752Z" fill="#E54747"/>
<path d="M275.407 140.618C274.759 141.266 273.68 142.074 272.171 143.044C270.66 144.016 268.693 144.986 266.266 145.958C263.84 146.927 260.872 147.762 257.369 148.465C253.862 149.165 249.846 149.516 245.317 149.516C236.58 149.516 229.03 148.113 222.667 145.311C216.302 142.508 211.045 138.596 206.894 133.582C202.741 128.566 199.695 122.636 197.754 115.785C195.812 108.937 194.842 101.415 194.842 93.2175C194.842 85.023 195.893 77.4446 197.997 70.4883C200.099 63.5314 203.254 57.5211 207.46 52.4496C211.666 47.3819 216.924 43.4178 223.234 40.5588C229.543 37.703 236.957 36.2719 245.478 36.2719C249.684 36.2719 253.486 36.6506 256.884 37.4042C260.281 38.1594 263.246 39.0499 265.782 40.0736C268.314 41.0999 270.418 42.1763 272.091 43.3091C273.762 44.4414 275.029 45.3874 275.893 46.1399C276.864 47.0049 277.698 48.0285 278.401 49.2135C279.101 50.4018 279.452 51.696 279.452 53.0967C279.452 55.2554 278.643 57.4113 277.026 59.5678C275.408 61.7265 273.628 63.7216 271.686 65.5537C270.392 64.2595 268.936 62.9403 267.319 61.5906C265.701 60.2426 263.894 59.0576 261.899 58.0313C259.902 57.0076 257.637 56.1454 255.104 55.4428C252.569 54.7425 249.738 54.3909 246.611 54.3909C241.111 54.3909 236.5 55.4982 232.779 57.7074C229.058 59.9193 226.065 62.8034 223.801 66.3627C221.536 69.9221 219.918 73.9939 218.947 78.5769C217.977 83.1621 217.491 87.826 217.491 92.571C217.491 97.6414 217.977 102.494 218.947 107.13C219.917 111.768 221.588 115.867 223.963 119.425C226.333 122.984 229.435 125.843 233.264 127.999C237.091 130.158 241.864 131.235 247.582 131.235C250.599 131.235 253.378 130.859 255.913 130.103C258.446 129.349 260.685 128.432 262.627 127.351C264.568 126.276 266.267 125.144 267.723 123.956C269.179 122.769 270.392 121.746 271.363 120.881C272.01 121.638 272.763 122.555 273.628 123.632C274.497 124.721 275.307 125.855 276.054 127.03C276.808 128.217 277.455 129.403 277.995 130.587C278.534 131.776 278.804 132.853 278.804 133.822C278.804 135.226 278.534 136.412 277.995 137.382C277.454 138.353 276.592 139.433 275.407 140.618ZM358.778 128.211C358.778 136.783 360.024 143.022 362.521 146.928C360.568 147.686 358.75 148.229 357.068 148.555C355.385 148.881 353.623 149.043 351.779 149.043C347.873 149.043 344.916 148.283 342.91 146.765C340.901 145.247 339.626 143.077 339.085 140.254C336.697 142.753 333.551 144.867 329.645 146.604C325.739 148.337 320.963 149.207 315.323 149.207C312.393 149.207 309.464 148.801 306.535 147.992C303.604 147.177 300.945 145.855 298.559 144.018C296.171 142.178 294.219 139.717 292.7 136.634C291.179 133.551 290.421 129.794 290.421 125.36C290.421 119.844 291.749 115.354 294.409 111.895C297.067 108.432 300.403 105.702 304.419 103.7C308.432 101.701 312.773 100.324 317.439 99.5653C322.103 98.8073 326.391 98.3221 330.296 98.1032C331.599 97.9961 332.873 97.9402 334.121 97.9402H337.62V94.9779C337.62 90.8073 336.506 87.8445 334.284 86.0901C332.058 84.3351 328.45 83.4555 323.46 83.4555C318.794 83.4555 314.644 84.2156 311.01 85.7337C307.373 87.2545 303.821 88.9888 300.35 90.9421C298.829 89.098 297.608 87.0643 296.688 84.8388C295.765 82.6166 295.304 80.961 295.304 79.8749C295.304 78.3568 296.143 76.892 297.827 75.4804C299.508 74.0721 301.815 72.7953 304.744 71.6559C307.674 70.5165 311.036 69.5961 314.836 68.8892C318.632 68.1845 322.647 67.8314 326.879 67.8314C332.738 67.8314 337.702 68.429 341.77 69.6217C345.839 70.817 349.148 72.6605 351.699 75.155C354.247 77.6527 356.065 80.7703 357.15 84.5133C358.234 88.2569 358.778 92.6258 358.778 97.6147L358.778 128.211ZM337.945 109.332H335.667C334.906 109.332 334.146 109.389 333.388 109.496C330.674 109.714 327.989 110.039 325.332 110.471C322.672 110.906 320.312 111.666 318.253 112.75C316.19 113.836 314.509 115.248 313.207 116.981C311.905 118.718 311.254 120.944 311.254 123.655C311.254 126.693 312.121 129.269 313.858 131.385C315.592 133.501 318.522 134.559 322.647 134.559C324.706 134.559 326.66 134.29 328.506 133.744C330.349 133.204 331.977 132.498 333.388 131.63C334.797 130.762 335.911 129.813 336.725 128.781C337.538 127.751 337.945 126.803 337.945 125.934L337.945 109.332ZM399.301 77.2702C401.03 75.2104 403.736 73.1202 407.412 71.0039C411.09 68.8882 415.741 67.8303 421.366 67.8303C425.369 67.8303 429.181 68.5089 432.806 69.8645C436.426 71.2223 439.646 73.4201 442.458 76.4562C445.271 79.4951 447.515 83.5103 449.193 88.4998C450.869 93.4919 451.708 99.6234 451.708 106.891C451.708 115.353 450.733 122.327 448.787 127.805C446.838 133.286 444.325 137.626 441.244 140.825C438.161 144.026 434.725 146.278 430.942 147.579C427.155 148.881 423.369 149.533 419.584 149.533C416.447 149.533 413.715 149.18 411.391 148.475C409.064 147.768 407.091 146.984 405.468 146.115C403.846 145.248 402.603 144.381 401.738 143.511C400.873 142.643 400.332 142.045 400.116 141.719V181.728H377.981V70.1085C378.526 70.002 379.182 69.8928 379.949 69.7836C380.606 69.6771 381.371 69.595 382.246 69.5391C383.12 69.4858 384.159 69.4581 385.361 69.4581C388.967 69.4581 392.029 70.0558 394.543 71.2484C397.057 72.4437 398.645 74.4497 399.301 77.2702ZM428.597 107.378C428.597 104.124 428.326 101.088 427.787 98.2651C427.248 95.4452 426.359 93.0035 425.118 90.9415C423.877 88.8812 422.203 87.2794 420.1 86.1395C417.994 85.0007 415.434 84.4318 412.414 84.4318C407.884 84.4318 404.728 85.3012 402.947 87.0349C401.167 88.772 400.277 90.672 400.277 92.7318V127.236C401.139 128.105 402.675 129.134 404.887 130.328C407.1 131.523 409.66 132.117 412.575 132.117C418.078 132.117 422.123 129.949 424.713 125.608C427.302 121.269 428.597 115.191 428.597 107.378ZM468.791 135.373C468.031 133.204 467.543 130.924 467.326 128.537C467.108 126.151 467.001 123.765 467.001 121.375V45.8584C467.759 45.7519 468.573 45.6427 469.442 45.533C470.199 45.4265 471.013 45.3455 471.883 45.289C472.75 45.2358 473.618 45.2081 474.486 45.2081C476.221 45.2081 477.959 45.3711 479.695 45.696C481.429 46.022 483.003 46.6729 484.416 47.6487C485.825 48.6251 486.964 49.9557 487.833 51.6362C488.701 53.3195 489.135 55.5173 489.135 58.2274V69.7825H511.921V86.2216H489.135V120.928C489.135 128.497 492.227 132.28 498.412 132.28C499.931 132.28 501.367 132.037 502.725 131.548C504.081 131.06 505.301 130.518 506.387 129.921C507.471 129.324 508.421 128.7 509.235 128.049C510.049 127.398 510.619 126.91 510.944 126.585C512.571 128.973 513.817 131.041 514.687 132.785C515.554 134.532 515.989 136.171 515.989 137.703C515.989 139.128 515.421 140.526 514.28 141.894C513.14 143.262 511.538 144.523 509.478 145.673C507.417 146.822 504.922 147.752 501.992 148.465C499.063 149.177 495.861 149.533 492.39 149.533C485.661 149.533 480.427 148.231 476.684 145.627C472.941 143.022 470.308 139.604 468.791 135.373ZM567.98 133.257C570.701 133.257 573.097 132.96 575.167 132.361C577.235 131.767 579.085 131.034 580.719 130.166C582.351 129.299 583.768 128.349 584.966 127.318C586.163 126.288 587.252 125.338 588.234 124.468C589.538 126.095 590.899 128.186 592.315 130.734C593.73 133.286 594.439 135.373 594.439 137C594.439 139.388 593.081 141.558 590.371 143.511C588.092 145.248 584.861 146.74 580.687 147.986C576.508 149.232 571.598 149.857 565.958 149.857C560.855 149.857 555.838 149.207 550.903 147.905C545.965 146.603 541.57 144.324 537.72 141.068C533.867 137.815 530.747 133.448 528.361 127.968C525.974 122.489 524.781 115.574 524.781 107.217C524.781 100.38 525.839 94.4965 527.953 89.5582C530.07 84.622 532.89 80.5258 536.419 77.2707C539.942 74.0156 543.93 71.6304 548.38 70.109C552.827 68.5915 557.386 67.8308 562.052 67.8308C568.127 67.8308 573.281 68.7822 577.512 70.679C581.745 72.5785 585.187 75.1289 587.848 78.3286C590.504 81.5293 592.43 85.1914 593.625 89.3142C594.817 93.4387 595.415 97.7772 595.415 102.334V104.612C595.415 105.483 595.387 106.403 595.334 107.379C595.278 108.356 595.225 109.307 595.172 110.227C595.115 111.151 595.034 111.883 594.928 112.425H546.915C547.35 118.393 549.201 123.356 552.467 127.318C555.731 131.279 560.903 133.257 567.98 133.257ZM575.396 100.218C575.396 95.01 574.386 90.7785 572.367 87.5234C570.348 84.2688 566.718 82.6405 561.483 82.6405C557.007 82.6405 553.434 84.1873 550.761 87.2794C548.086 90.3721 546.752 94.6845 546.752 100.217L575.396 100.218ZM633.934 77.6815C634.584 76.7132 635.452 75.6374 636.538 74.4519C637.621 73.2674 638.951 72.1911 640.525 71.2229C642.097 70.2541 643.834 69.4451 645.734 68.7996C647.63 68.1536 649.665 67.8308 651.838 67.8308C653.139 67.8308 654.523 67.94 655.987 68.1536C657.452 68.3698 658.807 68.7741 660.055 69.3641C661.302 69.9569 662.307 70.7626 663.067 71.7852C663.825 72.8078 664.206 74.0715 664.206 75.5771C664.206 77.9444 663.608 80.6633 662.416 83.7326C661.22 86.8046 660.029 89.424 658.836 91.593C656.989 90.0743 655.145 88.9078 653.301 88.0939C651.456 87.2805 649.285 86.873 646.791 86.873C643.427 86.873 640.607 87.8527 638.329 89.8103C636.049 91.7685 634.91 94.1081 634.91 96.8285V149.515H612.777V70.1085C613.318 70.002 613.969 69.8928 614.729 69.7836C615.38 69.6771 616.139 69.595 617.008 69.5391C617.875 69.4858 618.905 69.4581 620.1 69.4581C623.571 69.4581 626.582 70.1313 629.133 71.475C631.68 72.817 633.283 74.8871 633.934 77.6815ZM696.865 77.6815C697.516 76.7132 698.383 75.6374 699.469 74.4519C700.552 73.2674 701.882 72.1911 703.456 71.2229C705.028 70.2541 706.764 69.4451 708.664 68.7996C710.562 68.1536 712.596 67.8308 714.767 67.8308C716.069 67.8308 717.452 67.94 718.917 68.1536C720.381 68.3698 721.737 68.7741 722.986 69.3641C724.233 69.9569 725.236 70.7626 725.998 71.7852C726.756 72.8078 727.137 74.0715 727.137 75.5771C727.137 77.9444 726.538 80.6633 725.347 83.7326C724.15 86.8046 722.958 89.424 721.766 91.593C719.92 90.0743 718.075 88.9078 716.232 88.0939C714.387 87.2805 712.217 86.873 709.722 86.873C706.358 86.873 703.537 87.8527 701.259 89.8103C698.98 91.7685 697.842 94.1081 697.842 96.8285V149.515H675.707V70.1085C676.249 70.002 676.9 69.8928 677.661 69.7836C678.311 69.6771 679.07 69.595 679.939 69.5391C680.806 69.4858 681.835 69.4581 683.03 69.4581C686.503 69.4581 689.513 70.1313 692.063 71.475C694.611 72.817 696.213 74.8871 696.865 77.6815ZM802.492 128.211C802.492 136.783 803.739 143.022 806.235 146.928C804.282 147.686 802.464 148.229 800.784 148.555C799.1 148.881 797.338 149.043 795.494 149.043C791.587 149.043 788.63 148.283 786.624 146.765C784.615 145.247 783.341 143.077 782.799 140.254C780.412 142.753 777.265 144.867 773.359 146.604C769.454 148.337 764.677 149.207 759.038 149.207C756.107 149.207 753.179 148.801 750.248 147.992C747.319 147.177 744.658 145.855 742.274 144.018C739.886 142.178 737.933 139.717 736.414 136.634C734.894 133.551 734.137 129.794 734.137 125.36C734.137 119.844 735.463 115.354 738.124 111.895C740.781 108.432 744.118 105.702 748.134 103.7C752.146 101.701 756.486 100.324 761.154 99.5653C765.817 98.8073 770.105 98.3221 774.011 98.1032C775.313 97.9961 776.587 97.9402 777.836 97.9402H781.335V94.9779C781.335 90.8073 780.221 87.8445 777.998 86.0901C775.772 84.3351 772.165 83.4555 767.175 83.4555C762.509 83.4555 758.359 84.2156 754.725 85.7337C751.088 87.2545 747.536 88.9888 744.064 90.9421C742.544 89.098 741.322 87.0643 740.402 84.8388C739.48 82.6166 739.019 80.961 739.019 79.8749C739.019 78.3568 739.858 76.892 741.542 75.4804C743.223 74.0721 745.529 72.7953 748.458 71.6559C751.389 70.5165 754.75 69.5961 758.549 68.8892C762.346 68.1845 766.361 67.8314 770.593 67.8314C776.452 67.8314 781.416 68.429 785.485 69.6217C789.553 70.817 792.862 72.6605 795.412 75.155C797.96 77.6527 799.778 80.7703 800.865 84.5133C801.947 88.2569 802.492 92.6258 802.492 97.6147V128.211ZM781.659 109.332H779.381C778.621 109.332 777.86 109.389 777.103 109.496C774.39 109.714 771.703 110.039 769.046 110.471C766.386 110.906 764.027 111.666 761.967 112.75C759.905 113.836 758.223 115.248 756.921 116.981C755.62 118.718 754.968 120.944 754.968 123.655C754.968 126.693 755.836 129.269 757.572 131.385C759.307 133.501 762.237 134.559 766.361 134.559C768.422 134.559 770.375 134.29 772.221 133.744C774.065 133.204 775.691 132.498 777.103 131.63C778.511 130.762 779.626 129.813 780.439 128.781C781.253 127.751 781.66 126.803 781.66 125.934L781.659 109.332Z" fill="#044D80"/>
</svg>
