<svg xmlns="http://www.w3.org/2000/svg" width="40" height="40" viewBox="0 0 40 40" fill="none" ><g clip-path="url(#A)"><path d="M32.071 40H7.929A7.96 7.96 0 0 1 0 32.06V7.94A7.96 7.96 0 0 1 7.929 0h24.144a7.96 7.96 0 0 1 7.929 7.94v24.12C40 36.426 36.431 40 32.071 40z" fill="#858585"/><g fill="#fff"><path d="M28.023 8.864c-.587.852-1.144 1.86-1.144 1.86l1.709-.525-.565-1.334zm6.211 11.878H6.716v.1h27.518v-.1zm-22.478 4.82c-.053.079-.129.119-.229.119s-.186-.05-.243-.148-.086-.279-.086-.544c0-.215.024-.37.072-.47.064-.134.155-.203.274-.203.052 0 .1.014.143.045a.35.35 0 0 1 .107.131c.017.033.036.086.053.16l.467-.146c-.06-.253-.153-.439-.274-.561s-.293-.184-.508-.184c-.274 0-.489.107-.639.32s-.226.516-.226.912c0 .296.043.54.129.73s.186.322.305.399.269.112.455.112a.71.71 0 0 0 .379-.093.71.71 0 0 0 .248-.277c.067-.124.117-.274.148-.456l-.463-.196c-.021.153-.06.267-.112.349zm2.246-1.248v-.511h-1.414v2.392h1.44v-.542h-.911v-.473h.822v-.487h-.822v-.38h.884zm1.999 1.881l-.255-.692c-.012-.036-.038-.084-.074-.148a.76.76 0 0 0-.083-.126.46.46 0 0 0-.138-.088.52.52 0 0 0 .186-.096c.072-.06.126-.139.167-.234a.88.88 0 0 0 .06-.344.86.86 0 0 0-.079-.387c-.052-.105-.122-.179-.21-.217s-.212-.06-.374-.06h-.88v2.392h.532v-.972h.048c.048 0 .091.019.129.055a.59.59 0 0 1 .095.184l.281.73h.596v.002zm-.703-1.53c-.021.041-.05.064-.086.074-.069.022-.117.033-.141.033h-.222v-.487h.231c.095 0 .162.021.198.062s.052.1.052.179a.3.3 0 0 1-.033.138z"/><path d="M17.095 26.195v-1.802h.539v-.59h-1.607v.59h.539v1.802h.529z"/><use href="#B"/><path d="M20.111 24.316v-.513h-1.306v2.392h.529v-.979h.663v-.482h-.663v-.418h.777zm.834-.513h-.529v2.392h.529v-2.392zm1.793.511v-.511h-1.416v2.392h1.442v-.542h-.913v-.473h.822v-.487h-.822v-.38h.887zm1.655 1.625a1.08 1.08 0 0 0 .174-.353c.043-.141.062-.339.062-.594a2.4 2.4 0 0 0-.043-.463 1.29 1.29 0 0 0-.136-.384.69.69 0 0 0-.236-.253.69.69 0 0 0-.374-.088h-.784v2.392h.784c.093 0 .198-.021.315-.065.086-.033.164-.095.238-.191zm-.334-.52c-.026.086-.062.146-.11.179s-.124.053-.236.053h-.129v-1.308h.131c.136 0 .234.048.293.141s.088.267.088.52c0 .193-.012.332-.038.415zm3.049-.657a.68.68 0 0 0 .095-.363c0-.169-.045-.31-.133-.425a.45.45 0 0 0-.379-.172h-.989v2.392h.911c.038 0 .117-.012.236-.033a.45.45 0 0 0 .2-.079.58.58 0 0 0 .169-.234.87.87 0 0 0 .062-.334c0-.153-.029-.279-.086-.38a.46.46 0 0 0-.272-.212c.083-.041.145-.093.186-.16zm-.873-.475h.234c.081 0 .136.019.169.06s.048.093.048.162a.29.29 0 0 1-.048.172c-.031.041-.091.06-.172.06h-.229v-.454h-.002zm.463 1.325c-.038.045-.103.067-.193.067h-.269v-.485h.267c.093 0 .157.021.193.064s.055.1.055.169c.002.079-.017.139-.052.184zm1.619-1.002l-.343-.807h-.586l.665 1.389v1.003h.529v-1.003l.665-1.389h-.584l-.346.807zM13.868 36.775h.472s-.119.205-.284.263a.69.69 0 0 1-.236.045c-.184 0-.327-.048-.429-.143s-.153-.232-.153-.454c0-.21.05-.363.153-.461s.238-.146.408-.146c.115 0 .21.022.284.062a.34.34 0 0 1 .157.179l.751-.11a.8.8 0 0 0-.205-.329.83.83 0 0 0-.343-.191c-.138-.041-.346-.062-.625-.062-.288 0-.517.033-.689.1-.219.086-.384.212-.498.38a1.01 1.01 0 0 0-.169.587c0 .212.053.403.155.568s.25.265.439.349.431.124.732.124c.243 0 .532-.184.629-.274v.203l.61-.002v-1.158h-1.154v.47h-.005zm2.675-.06l-.491-1.206h-.927v1.948h.684V36.25l.443 1.208h.577l.396-1.208v1.208h.732V35.51h-.951l-.462 1.206zm3.241.17a.67.67 0 0 0-.217-.119 1.65 1.65 0 0 0-.284-.067L19 36.644a.81.81 0 0 1-.217-.081c-.057-.033-.086-.081-.086-.143 0-.072.036-.129.107-.172s.174-.065.308-.065.245.022.334.065a.29.29 0 0 1 .162.224l.2-.069a.43.43 0 0 0-.21-.265c-.124-.067-.284-.1-.484-.1s-.365.036-.477.11-.167.169-.167.284c0 .091.029.16.086.21a.59.59 0 0 0 .217.115c.088.026.181.048.284.06l.284.048c.088.019.16.045.217.076s.086.084.086.15c0 .033-.01.067-.029.096s-.048.057-.084.081a.44.44 0 0 1-.141.057.84.84 0 0 1-.203.022c-.16 0-.284-.024-.37-.074s-.145-.134-.179-.253l-.203.084c.009.036.024.069.043.1a.49.49 0 0 0 .138.15.69.69 0 0 0 .215.1 1.04 1.04 0 0 0 .288.036 1.65 1.65 0 0 0 .298-.026.91.91 0 0 0 .236-.076.42.42 0 0 0 .155-.127c.038-.051.057-.11.057-.174.005-.081-.026-.153-.083-.2z"/><path d="M21.381 36.235c-.143-.131-.341-.196-.594-.196-.131 0-.25.019-.353.057a.79.79 0 0 0-.265.158c-.072.067-.126.146-.167.234s-.057.184-.057.286a.8.8 0 0 0 .05.284c.033.088.083.165.152.229s.155.117.262.153.231.055.379.055c.114 0 .217-.012.305-.036s.162-.055.226-.098.117-.091.16-.146a.68.68 0 0 0 .076-.127l-.212-.057c-.033.1-.1.179-.198.234s-.219.084-.358.084a.78.78 0 0 1-.269-.043.55.55 0 0 1-.193-.117c-.05-.048-.088-.107-.114-.174a.58.58 0 0 1-.038-.212h1.423c-.002-.248-.072-.439-.217-.568zm-1.209.434a.55.55 0 0 1 .181-.341c.05-.045.112-.081.184-.107s.155-.041.25-.041.179.012.25.038a.5.5 0 0 1 .181.105.42.42 0 0 1 .11.155c.024.06.038.124.038.191h-1.194z"/><path d="M22.896 37.252c-.095.067-.222.098-.381.098a.72.72 0 0 1-.284-.05.53.53 0 0 1-.191-.131.49.49 0 0 1-.107-.186c-.021-.069-.033-.141-.033-.212a.66.66 0 0 1 .036-.212c.024-.069.06-.134.11-.189s.112-.1.191-.134a.71.71 0 0 1 .279-.05c.141 0 .257.029.35.086s.157.139.196.241l.198-.072c-.041-.127-.117-.222-.226-.287-.131-.076-.303-.114-.515-.114-.136 0-.258.019-.362.06s-.193.093-.265.162-.124.146-.162.234-.055.179-.055.277a.82.82 0 0 0 .05.287c.033.088.084.165.153.232s.155.117.262.153.231.055.379.055c.114 0 .219-.012.308-.038a.71.71 0 0 0 .231-.105c.064-.045.117-.1.16-.162.031-.048.055-.1.074-.155l-.21-.055c-.029.112-.088.203-.184.27z"/><path d="M23.952 37.35c-.045 0-.079-.002-.105-.009s-.043-.019-.055-.036-.019-.036-.021-.062-.002-.055-.002-.088v-.924h.367v-.157h-.367v-.528l-.212.072v.456h-.258v.157h.258v.986c0 .103.029.174.083.215s.136.06.243.06c.052 0 .1-.005.141-.014l.103-.019v-.131l-.086.014c-.031.007-.06.009-.088.009z"/><path d="M25.556 36.235c-.143-.131-.341-.196-.594-.196-.131 0-.25.019-.353.057s-.167.091-.241.158-.15.146-.191.234-.057.184-.057.286a.8.8 0 0 0 .05.284c.033.088.083.165.152.229s.155.117.262.153.231.055.379.055c.114 0 .217-.012.305-.036s.162-.055.226-.098.117-.091.16-.146c.026-.036.05-.074.072-.112l-.205-.069c-.033.1-.1.179-.198.234s-.219.084-.358.084c-.103 0-.191-.014-.269-.043a.55.55 0 0 1-.193-.117.48.48 0 0 1-.114-.174.58.58 0 0 1-.038-.213h1.423c-.005-.251-.074-.442-.219-.57zm-1.209.434a.55.55 0 0 1 .181-.341c.05-.045.112-.081.184-.107s.155-.041.25-.041.179.012.25.038a.5.5 0 0 1 .181.105.42.42 0 0 1 .11.155c.024.06.038.124.038.191h-1.194z"/><path d="M27.07 37.252c-.095.067-.222.098-.381.098a.73.73 0 0 1-.284-.05c-.079-.033-.141-.076-.191-.131a.49.49 0 0 1-.107-.186c-.021-.069-.033-.141-.033-.212s.012-.141.036-.212a.53.53 0 0 1 .11-.189.54.54 0 0 1 .191-.134.71.71 0 0 1 .279-.05c.141 0 .258.029.351.086s.157.139.195.241l.2-.06a.5.5 0 0 0-.231-.298c-.131-.076-.303-.114-.515-.114-.136 0-.257.019-.362.06a.79.79 0 0 0-.265.162c-.072.069-.124.146-.162.234s-.055.179-.055.277.017.196.05.287a.59.59 0 0 0 .153.232c.07.067.155.117.262.153a1.18 1.18 0 0 0 .379.055c.114 0 .219-.012.308-.038a.71.71 0 0 0 .231-.105.65.65 0 0 0 .16-.162.62.62 0 0 0 .074-.155l-.212-.052a.43.43 0 0 1-.179.267zm-7.795-5.726s-1.304.05-1.29 1.755 1.883 1.669 1.883 1.669l.546-.01-1.955-1.898 1.061-.005 1.983 1.912 3.185-.002-1.817-1.767v1.757l-1.695-1.771v1.108l-.825-.781v-2.187l1.788 1.762v-1.75l2.551 2.578-.005-6.216H15.29v7.267h3.094c-.563-.215-1.247-.695-1.278-1.745-.053-1.793 1.969-1.903 1.969-1.903h1.027v.972l-.83-.745zm3.492-15.458c.074-.174.11-.42.11-.735a2.15 2.15 0 0 0-.074-.573 1.28 1.28 0 0 0-.241-.475 1.07 1.07 0 0 0-.417-.313c-.169-.072-.391-.11-.665-.11h-1.39v2.955h1.39a2.17 2.17 0 0 0 .558-.081c.15-.038.291-.117.422-.234a1.2 1.2 0 0 0 .308-.434zm-.901-.205a.45.45 0 0 1-.193.222c-.083.043-.222.064-.417.064h-.229v-1.616h.234c.243 0 .415.057.52.174s.157.329.157.642c0 .236-.024.408-.072.513z"/><path d="M25.952 15.858c0-.162-.04-.308-.122-.437s-.21-.239-.386-.327-.47-.174-.88-.26c-.165-.033-.269-.069-.315-.11s-.069-.079-.069-.127c0-.064.029-.119.084-.165s.136-.067.245-.067c.131 0 .236.031.31.091s.124.158.148.291l.882-.05c-.038-.306-.16-.53-.362-.671s-.498-.21-.884-.21c-.315 0-.563.038-.744.117s-.317.184-.408.318-.136.279-.136.43a.71.71 0 0 0 .265.57c.174.15.467.27.877.358.25.055.41.11.479.172s.103.129.103.205-.036.15-.107.212-.176.091-.31.091c-.179 0-.317-.06-.413-.179-.06-.074-.098-.181-.117-.322l-.889.055c.026.298.138.544.336.738s.555.291 1.07.291c.293 0 .536-.041.729-.124s.343-.203.451-.363.162-.337.162-.527z"/><path d="M28.887 15.421c-.081-.131-.21-.239-.386-.327s-.47-.174-.88-.26c-.165-.033-.269-.069-.315-.11s-.069-.079-.069-.127c0-.064.029-.119.083-.165s.136-.067.246-.067c.131 0 .236.031.31.091s.124.158.148.291l.882-.05c-.038-.306-.16-.53-.362-.671s-.498-.21-.885-.21c-.315 0-.563.038-.744.117a.9.9 0 0 0-.408.318.76.76 0 0 0-.136.43.71.71 0 0 0 .265.57c.174.15.467.27.877.358.25.055.41.11.479.172a.27.27 0 0 1 .103.205c0 .076-.036.15-.107.212s-.176.091-.31.091c-.179 0-.317-.06-.412-.179-.06-.074-.098-.181-.117-.322l-.889.055c.026.298.138.544.336.738s.555.291 1.07.291c.293 0 .536-.041.73-.124s.343-.203.45-.363.162-.334.162-.525a.81.81 0 0 0-.122-.439zm-8.361 2.223c.031 0 .06.007.086.019s.048.031.064.055c.012.014.021.038.031.069l.281-.062c-.036-.107-.091-.189-.165-.241a.52.52 0 0 0-.305-.079c-.165 0-.293.045-.384.136s-.136.222-.136.392a.59.59 0 0 0 .076.313.45.45 0 0 0 .184.172.65.65 0 0 0 .274.048.54.54 0 0 0 .226-.041c.059-.027.11-.067.15-.119s.069-.117.088-.196l-.279-.084c-.014.064-.036.114-.067.148s-.076.05-.138.05-.112-.021-.145-.062-.052-.119-.052-.234c0-.091.014-.16.043-.203a.2.2 0 0 1 .167-.081z"/><path d="M21.578 17.407c-.167 0-.296.048-.391.141s-.141.224-.141.391a.57.57 0 0 0 .072.298c.048.079.11.138.184.174s.172.055.288.055.21-.021.286-.064a.42.42 0 0 0 .174-.179c.038-.076.06-.174.06-.294 0-.165-.045-.294-.138-.384s-.224-.139-.393-.139zm.16.757c-.038.045-.091.067-.157.067s-.119-.021-.157-.067-.057-.119-.057-.222.019-.179.057-.224.091-.067.155-.067.119.021.16.067.06.114.06.212c-.005.11-.021.189-.06.234z"/><path d="M23.367 18.45v-1.026h-.417l-.16.623-.162-.623h-.417v1.026h.26v-.783l.2.783h.236l.2-.783v.783h.26zm.134-1.026v1.024h.319v-.38h.174c.129 0 .224-.029.286-.088s.093-.139.093-.244a.31.31 0 0 0-.086-.234c-.057-.055-.143-.081-.258-.081H23.5v.002zm.563.325c0 .033-.012.06-.038.081s-.067.031-.129.031h-.079v-.229h.091c.06 0 .1.012.122.034s.033.05.033.083z"/><path d="M24.474 17.424v1.026h.813v-.253h-.496v-.773h-.317zm1.22 0h-.317v1.024h.317v-1.024zm.434.857h.36l.052.169h.331l-.386-1.024h-.346l-.386 1.024h.324l.05-.169zm.181-.592l.114.368h-.227l.112-.368zm1.283.303l-.386-.568h-.298v1.026h.298v-.563l.386.563h.298v-1.026h-.298v.568zm1.011.458v-.773h.324v-.253h-.963v.253h.322v.773h.317zm-5.671-8.008s-.098-.112-.231-.017l-1.011.68 1.769 2.306s.026.079.212.067l1.318-.119s.205 0 .267-.146c.081-.193 1.819-4.285 5.19-7.341 0 0 .143-.088-.045-.079h-1.44s-.064-.005-.134.06c-.15.174-2.672 2.273-4.289 5.98.026.065-1.607-1.392-1.607-1.392z"/><path d="M12.175 10.298V5.944h3.194s1.655-.074 1.745 1.681c.041 1.869-1.867 1.862-1.867 1.862h-1.254v1.33h-1.786l1.476 4.025 8.608-2.643-.753-.976s-.017-.131-.296-.074c-.448.048-3.636.313-3.507-2.788.384-3.364 4.594-2.471 4.725-2.437s.091.098.091.098l-.007 1.287s-.32-.138-1.285-.189-1.523.518-1.514 1.485.861 1.189 1.49 1.196 1.321-.088 1.321-.088l.007.339c.007.112 1.032.659 1.032.659l-.002-4.903 1.917.026.014 3.691c.226-.439 1.623-2.132 1.709-2.28s0-.239 0-.239L25.34 2.124s-.007-.167-.16-.16l-15.82.797 2.734 7.565c.026.081.081.117.079-.026zm3.245-2.619c.01-.473-.491-.525-.491-.525l-.732-.072c-.112 0-.098.076-.098.076l.01 1.249c1.128-.005 1.304-.308 1.311-.728z"/></g></g><defs><clipPath id="A"><path fill="#fff" d="M0 0h40v40H0z"/></clipPath><path id="B" d="M18.424 23.803h-.529v2.392h.529v-2.392z"/></defs></svg>