<?xml version="1.0" encoding="utf-8"?>
<!-- Generator: Adobe Illustrator 21.1.0, SVG Export Plug-In . SVG Version: 6.00 Build 0)  -->
<svg version="1.1" id="Layer_1" xmlns="http://www.w3.org/2000/svg" xmlns:xlink="http://www.w3.org/1999/xlink" x="0px" y="0px"
	 viewBox="0 0 20 20" style="enable-background:new 0 0 20 20;" xml:space="preserve">
<style type="text/css">
	.st0{fill:#FFFFFF;}
	.st1{fill-rule:evenodd;clip-rule:evenodd;fill:#1D1D1B;}
</style>
<rect class="st0" width="20" height="20"/>
<g>
	<path class="st1" d="M15,14.4l-1.2,0c0,0.7,0.5,1,1.2,0.9V14.4L15,14.4z M15.1,11.7c0-0.2,0.1-2.5,0.6-4.3c0.6-2,1.8-3.2,1.7-3.3
		c-0.1-0.1-1.1,0.1-1.8,0.6c-0.8,0.5-1.6,1.5-1.5,1.5c0,0,0.3-0.2,0.8-0.4c0.5-0.2,0.7-0.2,0.7-0.2s-0.9,1.4-1.3,3
		c-0.4,1.3-0.5,2.9-0.5,3.1H15.1L15.1,11.7z M4.9,11.7c0-0.2-0.1-2.5-0.6-4.3c-0.6-2-1.8-3.2-1.7-3.3C2.6,4,3.6,4.2,4.4,4.7
		C5.2,5.2,6,6.1,5.9,6.2c0,0-0.3-0.2-0.8-0.4C4.6,5.7,4.4,5.7,4.4,5.7s0.9,1.4,1.3,3c0.4,1.3,0.5,2.9,0.5,3.1H4.9L4.9,11.7z
		 M9.3,2.8c0.5-1,0.6-2.4,0.7-2.4c0.1,0,0.2,1.5,0.7,2.4c0.5,0.9,1.4,1.7,1.4,1.8c-0.1,0.1-0.6-0.2-0.9-0.3
		c-0.4-0.2-0.8-0.4-0.8-0.4s-0.2,2.3,0.4,4.4c0.5,1.7,1.6,3.3,1.7,3.5H11l-0.1-0.2c-0.4-0.7-0.7-1.3-0.9-2.3c-0.3,1-0.5,1.6-0.9,2.3
		l-0.1,0.2H7.5c0.1-0.1,1.2-1.7,1.7-3.5c0.6-2.1,0.4-4.4,0.4-4.4S9.2,4,8.8,4.2C8.5,4.4,8,4.6,7.9,4.5C7.8,4.4,8.8,3.7,9.3,2.8
		L9.3,2.8z M5,14.4l1.2,0c0,0.7-0.5,1-1.2,0.9V14.4L5,14.4z M11.8,15c-0.6,0.5-0.6,1.4-0.6,1.4l-1.2,0l-1.2,0c0,0,0-0.9-0.6-1.4
		c-0.4-0.4-0.9-0.4-0.9-0.4C7,14.5,7,14.4,7,14.4h2.7h0.7H13c0,0,0,0.1-0.3,0.1C12.6,14.5,12.2,14.6,11.8,15L11.8,15z M4.4,12h11.2
		v0.4H4.4V12L4.4,12z M4.4,13.6h11.2v0.4H4.4V13.6L4.4,13.6z M4.9,12.8h10.2v0.4H4.9V12.8L4.9,12.8z M8.7,17.9h2.6v1.7H8.7V17.9
		L8.7,17.9z M8.3,16.8h3.4v0.8H8.3V16.8L8.3,16.8z"/>
</g>
</svg>
