<?xml version="1.0" encoding="UTF-8"?>
<svg id="Layer_1" xmlns="http://www.w3.org/2000/svg" version="1.1" viewBox="0 0 350.6 103.4">
  <!-- Generator: Adobe Illustrator 29.2.1, SVG Export Plug-In . SVG Version: 2.1.0 Build 116)  -->
  <defs>
    <style>
      .st0 {
        fill: #e12028;
      }

      .st1, .st2, .st3 {
        fill: #2b2e71;
      }

      .st4 {
        fill: #e21f27;
      }

      .st4, .st3 {
        fill-rule: evenodd;
      }

      .st2 {
        stroke: #2b2e71;
      }

      .st5 {
        fill: #fff;
      }

      .st3 {
        opacity: 1;
      }
    </style>
  </defs>
  <path class="st2" d="M119.5,8.4h37.2l-2,10.8h-23.6l-2.2,11.7h22.2l-2,10.8h-22.2l-2.2,12h24.2l-2,10.9h-37.7l10.5-56.2Z"/>
  <path class="st1" d="M157.7,33.7l1.2-8.3h12.9l-1,6c2.1-3,5.6-6.9,12.7-6.9,12.6,0,10.6,10.9,9.6,16.3l-4.4,23.7h-12.9l4.2-22.5c.5-2.7,1.5-8.3-3.7-8.3s-7,6.9-7.3,8.3l-4.2,22.5h-12.8l5.8-30.8Z"/>
  <path class="st2" d="M208.5,47.9c-.4,2.1-1.8,9.5,4.8,9.5s5.9-2,7-5.7h12c-2.8,9.8-11.6,13.7-20.5,13.7s-17.2-6.9-14.8-19.8c2.5-13.1,9.7-21.6,22.4-21.6s13.2,4.4,14.5,10c.9,3.4.6,7.1-.7,14h-24.7ZM222.5,40c.3-2.3,1-8.2-4.6-8.2s-7.3,6.3-7.8,8.2h12.4Z"/>
  <path class="st2" d="M240.7,33.7l1.2-8.3h12.6l-1.3,8.1c4.6-8.7,10.8-8.5,13.7-8.4l-2.3,12.6c-1.5-.2-1.8-.2-2.7-.2-7.9,0-10.2,6.3-11,10.5l-3.1,16.6h-12.8l5.8-30.8Z"/>
  <path class="st2" d="M307.2,25.1l-6.8,36.5c-.9,4.7-2.7,10.2-8.1,14-3.4,2.4-8,4.4-15,4.4s-10.3-.6-13.5-4.6c-2.5-3-1.8-6.7-1.5-8.7h12.1c-.5,3,1,5,4.7,5,6.5,0,7.9-5.3,8.6-9.5l1-5.1c-4.6,5.9-10.3,6.3-12.3,6.3-7.3,0-14.3-5.1-11.7-19.4,2-10.6,8.6-19.4,19.1-19.4s9,3.5,10.2,6.6l1.1-5.9h12.1ZM286.8,32.6c-4.3,0-7.5,4.5-8.7,11.1-.8,4.1-1.2,10.9,4.5,10.9s7.9-8.3,8.5-11.1c.4-2,2-10.9-4.2-10.9Z"/>
  <path class="st2" d="M321,79.4h-12l7.4-13.6-6.9-40.4h13.9l1.8,27.2,12.6-27.2h12l-28.8,54Z"/>
  <path class="st1" d="M108.2,58c0-4.1-1.4-7.9-3.2-10.5-2.2-3.3-5.2-5.7-7.6-6.9,3.7,0,9.9,0,9.9,0l5.1-20.3s-37.3,0-38.1,0c-5.5,0-9.4,2.2-11.2,3.5-.2.2-.4.3-.6.5-.3.2-.4.4-.4.4l4.3-17.3h-20.4l-9.5,37.7h-15.5L30.5,7.2H10.1S2.5,37.4.7,44.5C.3,46.2,0,47.6,0,50.5c0,3.2.8,7.1,4,10.2,3.5,3.4,7.5,4.2,12.7,4.3,0,0,30.6,0,30.6,0l-3.4,13.2h44.4c.5,0,4.5,0,8.6-2l-.5,2h17l5.2-20.3h-10.4ZM63.4,57.7s.4-1.6.4-1.7c0-.1.2-.2.4,0,.6.3,1.9,1.1,4,1.9.2,0,0,.1,0,.1-1.8,0-2.9,0-4.6,0-.2,0-.2-.2-.2-.2Z"/>
  <path class="st5" d="M60.9,60.1c-.2,0-.3-.1-.3-.4.4-1.6,1.9-7.3,1.9-7.4,0-.3.3-.3.4-.1.2.2.3.3.7.6,1.6,1.3,4.2,2.8,6.9,3.4,1.7.4,3.3.4,4.5.4h12.5c1.2,0,1.8,1,1.8,1.8,0,1-.8,1.8-1.8,1.8s-25.9,0-26.7,0ZM11.7,10S2.8,45.3,2.8,45.3c-.4,1.5-.6,3.3-.6,5.2,0,2.8.8,6.1,3.2,8.6,2.4,2.5,6.1,3.9,11.3,3.9,0,0,32.8,0,33,0,.2,0,.4.1.3.4-.5,1.9-3.2,12.4-3.2,12.4,0,.2,0,.4.3.4.2,0,40.8,0,41,0,1.4,0,5.1,0,9.3-2.6.8-.5,1.5-1,2.4-1.8.3-.3.5,0,.4.3-.3,1.3-.9,3.4-.9,3.6,0,.3.2.5.3.4,1.9,0,11.5,0,11.7,0,.2,0,.4-.2.4-.4.6-2.4,3.8-14.9,3.8-15.1,0-.3,0-.6-.4-.6s-9.1,0-9.1,0c0,0-.3,0-.2-.3,0-.8,0-1.9,0-1.9,0-3.9-1.5-7.2-3-9.5-2.4-3.7-6.2-6-9.1-7-3-1-5.4-.9-5.4-.9h-13.7c-.7,0-1.2-.6-1.2-1.1,0-.5.4-1.1,1.1-1.1,6.4,0,29.7,0,30.3,0s.5-.3.6-.5c.6-2.4,3.7-14.8,3.8-14.9,0-.3,0-.6-.4-.6s-34.7,0-34.9,0c-6.7,0-12.5,3.6-15.4,9.8-1.2,2.5-3,8,0,14.4,0,.1,0,.4-.2.4h-4.1c-.3,0-.3-.2-.3-.4,0-.2,9.2-36.5,9.3-36.7,0-.1,0-.6-.4-.6h-14.7c-.3,0-.6.1-.7.5-.9,3.7-7.5,29.8-9,35.5-.2.7-.3,1.1-.3,1.2,0,.3-.2.4-.5.4h-18.9c-.5,0-.5-.4-.5-.6,0-.3,9.2-36.4,9.2-36.4,0-.3,0-.6-.4-.6h-14.6c-.7,0-.8.5-.9.6Z"/>
  <polygon class="st3" points="81.3 0 82 7.2 90 7.2 82.4 11.6 83.1 18.7 77.9 14.5 69.9 19.1 74.4 11.6 69.1 7.2 77 7.2 81.3 0"/>
  <path class="st4" d="M48.1,59.7c-.1.4-.1.4-.5.4h-30.8c-12.4,0-12.7-8.7-11.3-14.2.6-2.4,7.6-30.2,8.5-33.6,0-.2.3-.2.3-.2,0,0,9.7,0,9.8,0,.1,0,.2,0,.2.2-1,3.9-1.2,5-8.8,34.8-.3,1.6.9,2.7,2.4,2.7s1.3,0,2.2,0c5,0,17.5,0,20,0,.4,0,.5,0,.6-.4,1.1-4.2,9.2-36.5,9.3-37,0-.2.3-.2.3-.2,0,0,9.7,0,9.8,0,.1,0,.2,0,.2.2-.1.5-10.7,42.4-11.9,47.3Z"/>
  <path class="st4" d="M74.2,25.1c-8.4,0-14.3,6.9-14.4,14.3,0,8.2,6.6,14.4,14.4,14.4h13.3c2.9,0,4.5,2.3,4.5,4.5,0,2-1.6,4.5-4.6,4.5-5.7,0-31.4,0-34.3,0s-.3.1-.4.3c0,.2-2.2,8.5-2.5,9.9,0,.2,0,.2.2.2h37.7c8.9,0,15-7.3,15-14.9,0-7.7-5.3-13.3-11.6-14.7-1-.2-2-.4-3-.4h-13.9c-2.5,0-3.8-1.9-3.8-3.9,0-1.8,1.3-3.9,3.9-3.9,7.6,0,25.3,0,28,0,.5,0,.6-.1.7-.4.5-1.8,2.3-9.3,2.5-9.7,0-.2,0-.2-.2-.2h-31.6Z"/>
  <path class="st4" d="M53.3,50c0-.2.3-.2.3-.2,0,0,6.4,0,6.5,0,.1,0,.2,0,.2.2,0,0-2.4,9.3-2.5,9.9,0,.2-.3.2-.3.2,0,0-6.4,0-6.5,0-.1,0-.2,0-.2-.2,0,0,2.4-9.3,2.5-9.9Z"/>
  <path class="st4" d="M105.3,63.1c0-.2.3-.2.3-.2,0,0,6.3,0,6.4,0,.1,0,.2,0,.2.2,0,0-2.4,9.5-2.6,10,0,.2-.3.2-.3.2,0,0-6.3,0-6.4,0-.1,0-.2,0-.2-.2,0,0,2.4-9.5,2.5-10Z"/>
  <line class="st0" x1="114.6" y1="72.5" x2="114.2" y2="74.1"/>
  <line class="st0" x1="115.8" y1="68.3" x2="115.4" y2="69.9"/>
  <path class="st1" d="M5.7,99.9c0-.6.1-1,.2-1.2-1.3,1.5-2.5,1.5-3,1.5-1.3,0-1.8-.4-2.1-.7-.4-.5-.5-1.3-.4-2,.2-.7.7-2.1,2.5-2.8,1.2-.5,2.8-.5,3.7-.5.1-.6.2-.9.1-1.2,0-.7-.8-.8-1-.8-.4,0-.8.2-1.1.5-.3.3-.3.6-.4.8H1.6c.1-.5.4-1.5,1.5-2.2,1-.6,2.1-.7,2.9-.7s2.3.1,3,1.2c.5.7.2,1.8.2,2.2l-.8,3.7c-.2.8-.3,1.6-.3,2.3h-2.4ZM3,97.1c-.1.6.1,1.3,1,1.3s.9-.2,1.3-.5c.6-.6.8-1.3,1-2.3-1.7-.1-3,.4-3.3,1.5Z"/>
  <path class="st1" d="M20.5,86.8l-1.7,8c-.3,1.4-.6,3.2,2.2,3.2s1.8,0,2.8-1.1c.4-.4.6-.9.9-2.2l1.7-7.8h2.7l-1.7,8.2c-.8,3.9-4.2,5.1-6.8,5.1s-3.6-.3-4.4-2.3c-.4-1-.2-2,0-3.2l1.7-7.8h2.8Z"/>
  <path class="st1" d="M27.5,97.5h2.3l-.5,2.4h-2.3l.5-2.4Z"/>
  <path class="st1" d="M34.9,95.7c-.1.6-.6,2.5,1.8,2.5s2.6-.7,2.9-1.8c.2-1.2-.5-1.4-2.1-1.8-2.9-.8-4.5-1.7-4-4,.5-2.2,2.4-4.1,6-4.1s2.9.3,3.6,1.5c.5.9.3,2,.2,2.4h-2.7c0-.5.2-2-1.7-2s-2.3.7-2.5,1.8c-.3,1.2.7,1.4,2.4,1.9,2.1.5,4.2,1.2,3.7,3.7-.5,2.4-2.9,4.3-6.5,4.3s-4.4-3.2-4.1-4.5h2.9Z"/>
  <path class="st1" d="M43.4,97.5h2.3l-.5,2.4h-2.3l.5-2.4Z"/>
  <path class="st1" d="M54.4,86.8l1.2,10.3,5.6-10.3h2.8l-7.6,13h-3.1l-2-13h3.1Z"/>
  <path class="st1" d="M63.6,96c-.1.6-.5,2.4,1.3,2.4s1.4-.3,1.9-1.3h2.4c-.1.4-.4,1.2-1.3,2-.8.7-2.1,1.1-3.4,1.1s-2.2-.1-3-1.1c-.6-.9-.7-2.1-.4-3.6.3-1.5,1.1-3.3,2.8-4.3.8-.5,1.7-.8,2.7-.8s2.8.5,3.2,2.2c.3,1.2,0,2.6-.2,3.4h-6.1ZM67.4,94.3c0-.4.4-2-1.2-2s-1.9,1-2.2,2h3.3Z"/>
  <path class="st1" d="M72.1,92.4s.2-1,.3-1.7h2.6l-.2,1.4c.3-.4,1.3-1.6,3.3-1.6s2.3,1.1,2.4,1.7c0,.6,0,1-.3,2.7l-1.1,4.9h-2.7l1.2-5.7c0-.4.2-.7,0-1-.1-.4-.4-.8-1.1-.8s-1.2.3-1.5.7c-.2.2-.5.7-.6,1.4l-1.1,5.4h-2.7l1.6-7.5Z"/>
  <path class="st1" d="M86.7,99.8c-.9.2-1.7.3-2.1.3-2.7,0-2.3-1.7-2.2-2.5l1.1-5h-1.8l.4-1.8h1.8l.4-1.8,2.9-1-.6,2.8h2.2l-.4,1.8h-2.2l-.9,4.1c-.2.8-.3,1.4.9,1.4s.6,0,.9,0l-.4,1.8Z"/>
  <path class="st1" d="M92.4,90.7l-1.2,5.5c-.2.8-.4,2,1,2s2-1.3,2.3-2.8l1-4.6h2.8l-1.3,6c-.4,2-.4,2.2-.5,2.4,0,.3,0,.4,0,.7h-2.6l.2-1.2c-.4.4-1.3,1.4-3,1.4s-2.1-.6-2.5-1.2c-.4-.7-.2-2,0-2.5l1.2-5.7h2.7Z"/>
  <path class="st1" d="M100.1,93c0-.4.3-1.8.4-2.3h2.5l-.3,1.8c.5-.8,1.3-1.9,3.5-1.8l-.5,2.4c-2.7-.3-3.1,1.1-3.4,2.3l-1,4.5h-2.7l1.5-6.9Z"/>
  <path class="st1" d="M107.8,96c-.1.6-.5,2.4,1.3,2.4s1.4-.3,1.9-1.3h2.4c-.1.4-.4,1.2-1.3,2-.8.7-2.1,1.1-3.4,1.1s-2.2-.1-3-1.1c-.6-.9-.7-2.1-.4-3.6.3-1.5,1.1-3.3,2.8-4.3.8-.5,1.7-.8,2.7-.8s2.8.5,3.2,2.2c.3,1.2,0,2.6-.2,3.4h-6.1ZM111.6,94.3c0-.4.4-2-1.2-2s-1.9,1-2.2,2h3.3Z"/>
  <path class="st1" d="M125.6,94c0-.3.2-1.7-.8-1.7s-1.8,1.9-2,2.9c-.1.5-.4,2.1,0,2.8.2.3.5.3.7.3.3,0,1.1-.1,1.6-1.8h2.6c-.2.7-.5,1.8-1.8,2.7-.8.6-1.6.9-2.8.9s-2.2-.3-2.9-1.2c-.6-.9-.7-2.1-.4-3.6.9-4.2,4.1-4.7,5.3-4.7s3.5.9,3,3.4h-2.6Z"/>
  <path class="st1" d="M134.6,90.5c3.3,0,4.3,2.2,3.7,4.8-.5,2.6-2.5,4.9-5.8,4.9s-4.3-1.6-3.6-4.8c.5-2.2,2.2-4.9,5.8-4.9ZM132.9,98.3c1.2,0,2.1-.7,2.6-3.1.3-1.2.4-2.9-1.4-2.9s-2.5,2.3-2.6,3.1c-.4,2,0,2.9,1.4,2.9Z"/>
  <path class="st1" d="M140.7,92.5c.1-.6.2-1.1.3-1.7h2.6l-.2,1.2c.4-.4,1.3-1.4,3.1-1.4s2.4,1.3,2.5,1.7c1.1-1.5,2.4-1.7,3.3-1.7,1.8,0,2.4,1.1,2.5,1.5.3.8,0,1.9-.1,2.7l-1.1,5.2h-2.7l1.1-5.4c.2-1,.3-2.1-1.1-2.1s-2,1.5-2.3,2.9l-1,4.6h-2.7l1.2-5.4c.2-.7.4-2-1.1-2s-2,1.4-2.1,2.1l-1.1,5.4h-2.7l1.6-7.4Z"/>
  <path class="st1" d="M160.4,90.7l-.2,1.3c1.1-1.5,2.7-1.5,3.1-1.5,2.4,0,3.4,1.8,2.8,4.6-.6,2.6-2.4,4.9-5,4.9s-2.1-.9-2.3-1.2l-1,4.6h-2.7l2.7-12.7h2.6ZM163.4,95.2c.2-1.1.4-3-1.2-3s-2.2.7-2.8,3.1c-.1.5-.6,2.9,1.4,2.9s2.2-1.2,2.6-3Z"/>
  <path class="st1" d="M172.2,99.9c0-.6.1-1,.2-1.2-1.3,1.5-2.5,1.5-3,1.5-1.3,0-1.8-.4-2.1-.7-.4-.5-.5-1.3-.4-2,.2-.7.7-2.1,2.5-2.8,1.2-.5,2.8-.5,3.7-.5.1-.6.2-.9.1-1.2,0-.7-.8-.8-1-.8-.4,0-.8.2-1.1.5-.3.3-.3.6-.4.8h-2.6c.1-.5.4-1.5,1.5-2.2,1-.6,2.1-.7,2.9-.7s2.3.1,3,1.2c.5.7.2,1.8.2,2.2l-.8,3.7c-.2.8-.3,1.6-.3,2.3h-2.4ZM169.5,97.1c-.1.6.1,1.3,1,1.3s.9-.2,1.3-.5c.6-.6.8-1.3,1-2.3-1.7-.1-3,.4-3.3,1.5Z"/>
  <path class="st1" d="M178.2,92.4s.2-1,.3-1.7h2.6l-.2,1.4c.3-.4,1.3-1.6,3.3-1.6s2.3,1.1,2.4,1.7c0,.6,0,1-.3,2.7l-1.1,4.9h-2.7l1.2-5.7c0-.4.2-.7,0-1-.1-.4-.4-.8-1.1-.8s-1.2.3-1.5.7c-.2.2-.5.7-.6,1.4l-1.1,5.4h-2.7l1.6-7.5Z"/>
  <path class="st1" d="M190.5,90.7l.7,6.3,3.4-6.3h2.7l-5.4,9-1.9,3.6h-2.7l1.9-3.4-1.6-9.2h2.9Z"/>
  <path class="st1" d="M333.3,77.3c-2,0-3.6-1.5-3.6-3.6s1.5-3.6,3.6-3.6,3.6,1.5,3.6,3.6-1.5,3.6-3.6,3.6M333.3,70.8c-1.7,0-2.9,1.3-2.9,2.9s1.3,2.9,2.9,2.9,2.9-1.3,2.9-2.9-1.3-2.9-2.9-2.9M334.2,74l.7,1.5h-.9l-.7-1.4h-.7v1.4h-.8v-3.9h1.8c.8,0,1.3.4,1.3,1.2s-.4,1-.8,1.1M333.6,72.4h-.9v1h.9c.4,0,.6-.2.6-.5s-.2-.5-.6-.5"/>
</svg>