<?xml version="1.0" encoding="UTF-8"?>
<!-- Generator: Adobe Illustrator 27.2.0, SVG Export Plug-In . SVG Version: 6.00 Build 0)  -->
<svg xmlns="http://www.w3.org/2000/svg" xmlns:xlink="http://www.w3.org/1999/xlink" version="1.1" id="Layer_1" x="0px" y="0px" viewBox="0 0 98.99 98.99" style="enable-background:new 0 0 98.99 98.99;" xml:space="preserve">
<style type="text/css">
	.st0{fill:#1A1A1A;}
	.st1{fill:#FFFFFF;}
	.st2{fill:#EF4036;}
</style>
<g>
	<rect class="st0" width="98.99" height="98.99"></rect>
	<g>
		<path class="st1" d="M63.77,59.49l-1.37,1.37c-0.29,0.28-0.75,0.28-1.03,0l-7.35-7.35c-0.13-0.14-0.21-0.32-0.21-0.51v-0.8    c-2.21,1.91-5.09,3.06-8.23,3.06c-6.96,0-12.59-5.64-12.59-12.59s5.64-12.59,12.59-12.59s12.59,5.64,12.59,12.59    c0,3.15-1.16,6.02-3.06,8.23h0.8c0.19,0,0.38,0.07,0.51,0.21l7.35,7.35C64.06,58.75,64.06,59.21,63.77,59.49z M55.27,42.67    c0-5.35-4.33-9.69-9.69-9.69s-9.69,4.33-9.69,9.69s4.33,9.69,9.69,9.69S55.27,48.02,55.27,42.67z"></path>
	</g>
	<rect x="33.86" y="68" class="st2" width="32.04" height="5"></rect>
</g>
</svg>
