<svg width="58" height="58" viewBox="0 0 58 58" fill="none" xmlns="http://www.w3.org/2000/svg">
<g clip-path="url(#clip0_421_3)">
<rect width="58" height="58" fill="white"/>
<g clip-path="url(#clip1_421_3)">
<path d="M46.8417 7.9585H10.6917C7.93335 7.9585 5.68335 10.2002 5.68335 12.9668V38.0585C5.68335 40.8168 7.92502 43.0668 10.6917 43.0668H20.95V47.1335H17.05C16.3583 47.1335 15.8 47.6918 15.8 48.3835C15.8 49.0752 16.3583 49.6335 17.05 49.6335H42.1333C42.825 49.6335 43.3833 49.0752 43.3833 48.3835C43.3833 47.6918 42.825 47.1335 42.1333 47.1335H38.2333V43.0668H46.8417C49.6 43.0668 51.85 40.8252 51.85 38.0585V12.9668C51.8417 10.2085 49.6 7.9585 46.8417 7.9585ZM35.725 47.1335H23.45V43.0668H35.7334V47.1335H35.725ZM49.3417 38.0585C49.3417 39.4418 48.2167 40.5668 46.8334 40.5668H10.6917C9.30835 40.5668 8.18335 39.4418 8.18335 38.0585V12.9668C8.18335 11.5835 9.30835 10.4585 10.6917 10.4585H46.8417C48.225 10.4585 49.35 11.5835 49.35 12.9668V38.0585H49.3417Z" fill="#00C4E3"/>
<path d="M41.3083 19.75H24.7833C24.0917 19.75 23.5333 19.1917 23.5333 18.5C23.5333 17.8083 24.0917 17.25 24.7833 17.25H41.3083C42 17.25 42.5583 17.8083 42.5583 18.5C42.5583 19.1917 42 19.75 41.3083 19.75Z" fill="#00C4E3"/>
<path d="M41.3083 33.7666H24.7833C24.0917 33.7666 23.5333 33.2083 23.5333 32.5166C23.5333 31.8249 24.0917 31.2666 24.7833 31.2666H41.3083C42 31.2666 42.5583 31.8249 42.5583 32.5166C42.5583 33.2083 42 33.7666 41.3083 33.7666Z" fill="#00C4E3"/>
<path d="M19.7834 28.2168H15.225C14.1084 28.2168 13.2084 29.1251 13.2084 30.2335V34.7918C13.2084 35.9085 14.1167 36.8085 15.225 36.8085H19.7834C20.9 36.8085 21.8 35.9001 21.8 34.7918V30.2335C21.8 29.1251 20.9 28.2168 19.7834 28.2168ZM19.7834 35.5668H15.225C14.8 35.5668 14.4584 35.2251 14.4584 34.8001V30.2418C14.4584 29.8168 14.8 29.4751 15.225 29.4751H19.7834C19.9917 29.4751 20.175 29.5585 20.3167 29.6918C20.275 29.7168 20.2334 29.7335 20.2 29.7668L16.375 33.3501L15.6584 32.3001C15.4667 32.0168 15.075 31.9418 14.7917 32.1335C14.5084 32.3251 14.4334 32.7168 14.625 33.0001L15.75 34.6501C15.85 34.8001 16.0167 34.9001 16.2 34.9168C16.225 34.9168 16.25 34.9168 16.2667 34.9168C16.425 34.9168 16.575 34.8585 16.6917 34.7501L20.5584 31.1251V34.7918C20.55 35.2251 20.2084 35.5668 19.7834 35.5668Z" fill="#00C4E3"/>
<path d="M19.7834 14.2002H15.225C14.1084 14.2002 13.2084 15.1085 13.2084 16.2169V20.7752C13.2084 21.8919 14.1167 22.7919 15.225 22.7919H19.7834C20.9 22.7919 21.8 21.8835 21.8 20.7752V16.2169C21.8 15.1085 20.9 14.2002 19.7834 14.2002ZM19.7834 21.5502H15.225C14.8 21.5502 14.4584 21.2085 14.4584 20.7835V16.2252C14.4584 15.8002 14.8 15.4585 15.225 15.4585H19.7834C19.975 15.4585 20.15 15.5335 20.2834 15.6585C20.25 15.6752 20.225 15.6919 20.1917 15.7169L16.375 19.2919L15.6584 18.1752C15.475 17.8835 15.0834 17.8002 14.7917 17.9919C14.5 18.1752 14.4167 18.5669 14.6084 18.8585L15.7334 20.6002C15.8334 20.7585 16 20.8585 16.1834 20.8835C16.2084 20.8835 16.2334 20.8919 16.2584 20.8919C16.4167 20.8919 16.5667 20.8335 16.6834 20.7252L20.55 17.1002V20.8002C20.55 21.2085 20.2084 21.5502 19.7834 21.5502Z" fill="#00C4E3"/>
</g>
</g>
<defs>
<clipPath id="clip0_421_3">
<rect width="58" height="58" fill="white"/>
</clipPath>
<clipPath id="clip1_421_3">
<rect width="60" height="60" fill="white" transform="translate(-1 1)"/>
</clipPath>
</defs>
</svg>
