<?xml version="1.0" encoding="UTF-8"?>
<svg width="42px" height="42px" viewBox="0 0 42 42" version="1.1" xmlns="http://www.w3.org/2000/svg" xmlns:xlink="http://www.w3.org/1999/xlink">
    <title>icon/header/profile</title>
    <g id="Symbols" stroke="none" stroke-width="1" fill="none" fill-rule="evenodd">
        <g id="header/service-menu" transform="translate(-968.000000, -18.000000)">
            <g id="Header-Icons" transform="translate(968.000000, 19.000000)">
                <g id="icon/header/profile" transform="translate(1.000000, 0.000000)">
                    <ellipse id="Oval" stroke="#AEB0B6" fill="#FFFFFF" cx="19.9894793" cy="20" rx="19.9894793" ry="20"></ellipse>
                    <g id="Group-7" transform="translate(8.995266, 8.000000)" fill="#0071BC">
                        <path d="M15.0744272,10.2422068 C16.227498,9.07040858 16.803939,7.65638759 16.803939,5.99995205 C16.803939,4.3437083 16.227498,2.92968731 15.0744272,1.75769732 C13.9215451,0.585899106 12.5301617,0 10.9006544,0 C9.27114711,0 7.87976372,0.585899106 6.72688164,1.75769732 C5.57381086,2.92968731 4.99736982,4.3437083 4.99736982,5.99995205 C4.99736982,7.65638759 5.57381086,9.07040858 6.72688164,10.2422068 C7.87995241,11.414005 9.27114711,12.0000959 10.9006544,12.0000959 C12.5305391,12.0000959 13.9217338,11.414005 15.0744272,10.2422068 Z" id="Shape"></path>
                        <path d="M21.5913493,18.3361089 C21.55531,17.8100463 21.4836086,17.2423666 21.3760566,16.6328781 C21.2685046,16.0233896 21.1324607,15.4583949 20.9684911,14.9375105 C20.8045214,14.4168178 20.5841342,13.9089747 20.3073293,13.4141728 C20.030713,12.9193709 19.7129629,12.4974469 19.3540788,12.1484006 C18.9951947,11.7993543 18.5572505,11.5208844 18.0398687,11.3126074 C17.5221095,11.1043303 16.9507631,11 16.3256406,11 C16.2333723,11 16.0180796,11.1120017 15.6799511,11.336005 C15.3418227,11.5600083 14.9601074,11.8100942 14.5348052,12.0860709 C14.1095031,12.3618558 13.5558933,12.6121335 12.8745418,12.8357533 C12.1930017,13.0597566 11.5090087,13.1717583 10.8221853,13.1717583 C10.1355506,13.1717583 9.45155755,13.0597566 8.77001744,12.8357533 C8.08866601,12.6121335 7.53505618,12.3618558 7.10975402,12.0860709 C6.68445185,11.8100942 6.30273656,11.5600083 5.96460813,11.336005 C5.62629101,11.1120017 5.41118699,11 5.31891868,11 C4.6937962,11 4.12244973,11.1043303 3.60487926,11.3126074 C3.08730879,11.5208844 2.64917586,11.7995461 2.29048047,12.1484006 C1.93178508,12.4974469 1.61403492,12.9193709 1.3374187,13.4141728 C1.06080247,13.9089747 0.840415191,14.4170096 0.676445545,14.9375105 C0.5124759,15.4583949 0.376620728,16.0233896 0.269068716,16.6328781 C0.161328017,17.2423666 0.0896266762,17.8098545 0.0537760057,18.3361089 C0.0179253352,18.8623633 0,19.4012754 0,19.9534205 C0,21.2032747 0.374167787,22.1903852 1.12231467,22.9143686 C1.87046156,23.6381602 2.86465726,24.0000559 4.10471308,24.0000559 L17.5407896,24.0000559 C18.7808454,24.0000559 19.7748525,23.6381602 20.523188,22.9143686 C21.2715236,22.1903852 21.6455027,21.2034665 21.6455027,19.9534205 C21.6455027,19.4012754 21.6275774,18.8621715 21.5913493,18.3361089 L21.5913493,18.3361089 Z" id="Shape"></path>
                    </g>
                </g>
            </g>
        </g>
    </g>
</svg>