<svg width="200" height="200" viewBox="0 0 200 200" fill="none" xmlns="http://www.w3.org/2000/svg">
<g clip-path="url(#clip0_27_6)">
<path d="M100 200C155.228 200 200 155.228 200 100C200 44.7715 155.228 0 100 0C44.7715 0 0 44.7715 0 100C0 155.228 44.7715 200 100 200Z" fill="#FF492C"/>
<path d="M143.28 76.6H126.2C126.66 73.92 128.32 72.42 131.68 70.72L134.82 69.12C140.44 66.24 143.44 62.98 143.44 57.66C143.44 54.32 142.14 51.68 139.56 49.78C136.98 47.88 133.94 46.94 130.38 46.94C127.626 46.9076 124.922 47.6791 122.6 49.16C120.26 50.6 118.52 52.46 117.44 54.78L122.38 59.74C124.3 55.86 127.08 53.96 130.74 53.96C133.84 53.96 135.74 55.56 135.74 57.78C135.74 59.64 134.82 61.18 131.26 62.98L129.24 63.96C124.86 66.18 121.82 68.72 120.06 71.6C118.3 74.48 117.44 78.1 117.44 82.48V83.68H143.28V76.6ZM141 91.84H112.72L98.5801 116.32H126.86L141 140.82L155.14 116.32L141 91.84Z" fill="white"/>
<path d="M101.02 132.66C83.0199 132.66 68.3599 118 68.3599 100C68.3599 82 83.0199 67.34 101.02 67.34L112.2 43.96C108.518 43.2279 104.774 42.8595 101.02 42.86C69.4599 42.86 43.8799 68.44 43.8799 100C43.8799 131.56 69.4599 157.14 101.02 157.14C113.114 157.163 124.9 153.323 134.66 146.18L122.3 124.74C116.387 129.848 108.834 132.659 101.02 132.66Z" fill="white"/>
</g>
<defs>
<clipPath id="clip0_27_6">
<rect width="200" height="200" fill="white"/>
</clipPath>
</defs>
</svg>
