<svg width="58" height="58" viewBox="0 0 58 58" fill="none" xmlns="http://www.w3.org/2000/svg">
<g clip-path="url(#clip0_421_20)">
<rect width="58" height="58" fill="white"/>
<g clip-path="url(#clip1_421_20)">
<path d="M46.4725 8.86108H11.5275C8.86116 8.86108 6.68616 11.028 6.68616 13.6944V37.9497C6.68616 40.6161 8.8531 42.7911 11.5275 42.7911H21.4439V46.7222H17.6739C17.0053 46.7222 16.4656 47.2619 16.4656 47.9305C16.4656 48.5991 17.0053 49.1389 17.6739 49.1389H41.9212C42.5898 49.1389 43.1295 48.5991 43.1295 47.9305C43.1295 47.2619 42.5898 46.7222 41.9212 46.7222H38.1512V42.7911H46.4725C49.1389 42.7911 51.3139 40.6241 51.3139 37.9497V13.6944C51.3139 11.028 49.1389 8.86108 46.4725 8.86108ZM35.7264 46.7222H23.8606V42.7911H35.7345V46.7222H35.7264ZM48.8973 37.9497C48.8973 39.2869 47.8098 40.3744 46.4725 40.3744H11.5275C10.1903 40.3744 9.10282 39.2869 9.10282 37.9497V13.6944C9.10282 12.3572 10.1903 11.2697 11.5275 11.2697H46.4725C47.8098 11.2697 48.8973 12.3572 48.8973 13.6944V37.9497Z" fill="#00C4E3"/>
<path d="M39.2709 31.7872L39.0615 31.6502L37.7806 30.748C36.2179 29.6444 34.6551 28.5408 33.0843 27.4452C32.9876 27.3808 32.8426 27.3324 32.6895 27.3324C32.4479 27.3244 32.2062 27.3244 31.9645 27.3244H30.7884V25.9469H31.014C31.1348 25.9469 31.6101 25.963 31.7309 25.963C31.8598 25.963 31.9968 25.9549 32.1256 25.9469C32.2465 25.9308 32.3593 25.9308 32.4801 25.9308C33.1568 25.9308 33.7609 26.1563 34.3812 26.6477C34.9934 27.1311 35.6459 27.5822 36.2823 28.0172C36.4354 28.1219 36.5804 28.2266 36.7334 28.3233L35.6943 25.9791C35.6943 25.9791 36.2743 25.9469 36.3306 25.9469H38.554C39.0293 25.9469 39.2548 25.7294 39.2548 25.2622V17.9558C39.2548 17.5047 39.0373 17.2872 38.5943 17.2872H27.7193C27.2843 17.2872 27.0909 17.4966 27.0909 17.9558C27.0909 17.9558 27.0909 24.8513 27.0909 25.2622C27.0909 25.7536 27.2843 25.9469 27.7837 25.9469H29.0806V26.3658C29.0806 26.5833 29.0806 26.8008 29.0726 27.0102C29.0645 27.2036 28.8309 27.3163 28.702 27.3163C28.702 27.3163 28.114 27.3244 27.969 27.3244C27.7756 27.3244 27.5743 27.3163 27.3809 27.3002C26.4304 27.2116 25.7134 26.3577 25.7054 25.3024C25.7054 23.2161 25.7054 21.1297 25.7054 19.0433V18.3344C25.7054 18.0927 25.6973 17.843 25.7295 17.6013C25.8584 16.5944 26.6237 15.9177 27.6387 15.9177H38.5701C39.8106 15.9177 40.6162 16.7233 40.6162 17.9638C40.6162 20.4047 40.6162 22.8536 40.6162 25.2944C40.6162 26.4786 39.7784 27.3083 38.5862 27.3163H37.7806L39.6817 31.5777L39.4804 31.8677L39.2709 31.7872Z" fill="#00C4E3"/>
<path d="M18.5359 33.8654H18.2781C18.1573 33.8654 18.0365 33.8654 17.9156 33.8574H17.819C17.5854 33.8493 17.3517 33.8412 17.1181 33.7768C16.2804 33.5512 15.7165 32.8101 15.7165 31.924C15.7084 30.6835 15.7165 29.4429 15.7165 28.2024V25.7615C15.7165 25.3346 15.7165 24.8996 15.7165 24.4726C15.7245 23.2804 16.5301 22.4749 17.7304 22.4668H20.9848C22.3381 22.4668 23.6915 22.4668 25.0367 22.4587C25.1495 22.4587 25.3106 22.4749 25.4234 22.5876C25.5362 22.7004 25.5442 22.8535 25.5442 22.9824C25.5281 23.7315 25.4234 23.8282 24.6904 23.8282H17.819C17.2631 23.8282 17.0779 24.0135 17.0779 24.5612V31.6743C17.0779 32.3026 17.2551 32.4879 17.8754 32.4879H20.6465L19.5912 34.8562L20.1067 34.4937C20.9687 33.8815 21.8306 33.2774 22.6926 32.6732C22.8456 32.5604 23.0551 32.496 23.2484 32.496C24.3842 32.4879 25.5201 32.4879 26.6559 32.4879H28.5006C29.0565 32.4879 29.2417 32.3026 29.2417 31.7468C29.2417 29.3382 29.2417 26.9215 29.2417 24.5129C29.2417 23.9974 29.0645 23.8282 28.5409 23.8282H27.7112C27.4131 23.8282 27.252 23.6751 27.244 23.3851C27.2359 22.9824 27.2279 22.7649 27.3729 22.6118C27.5259 22.4587 27.7515 22.4587 28.0415 22.4587H28.7101C29.7895 22.4829 30.6031 23.2965 30.6112 24.3679C30.6192 26.8893 30.6192 29.4026 30.6112 31.924C30.6031 33.0276 29.7654 33.8574 28.6456 33.8574H26.2773C25.3751 33.8574 24.4809 33.8574 23.5787 33.8654C23.4498 33.8654 23.2967 33.9137 23.192 33.9862C21.6212 35.0818 20.0584 36.1854 18.4956 37.289L17.2148 38.1912C17.1423 38.2476 17.0456 38.296 16.9006 38.3121L16.514 38.3524L18.5359 33.8654Z" fill="#00C4E3"/>
<path d="M31.3281 25.1575C31.0139 25.1575 30.7481 24.9883 30.6595 24.7306C30.5306 24.3681 30.7642 23.9975 31.2394 23.7961C31.4972 23.6914 31.747 23.5706 32.0128 23.4417L32.1417 23.3772C32.1336 23.3611 32.1256 23.3531 32.1094 23.337C31.6825 22.7811 31.3844 22.185 31.2153 21.5647C31.1589 21.3553 31.1831 21.1378 31.2958 20.9767C31.3844 20.8397 31.5133 20.7511 31.6744 20.7028H31.1992C30.8044 20.7028 30.5306 20.5175 30.45 20.1953C30.4017 19.9939 30.4339 19.7925 30.5547 19.6314C30.6836 19.4622 30.885 19.3656 31.1186 19.3575C31.3683 19.3495 31.6181 19.3414 31.8758 19.3414C32.0611 19.3414 32.2464 19.3414 32.4317 19.3495C32.4478 19.1481 32.4558 18.9708 32.48 18.7936C32.5283 18.4392 32.7861 18.2136 33.1406 18.2136C33.5433 18.2297 33.7931 18.4714 33.8172 18.842C33.8253 19.0031 33.8333 19.1722 33.8172 19.3333C33.9542 19.3414 34.0911 19.3414 34.22 19.3414C34.2683 19.3414 35.0578 19.3414 35.0578 19.3414C35.7022 19.3414 35.815 19.7683 35.8311 19.9456C35.8553 20.2114 35.7747 20.5497 35.2189 20.7028C35.1383 21.6292 34.7758 22.5233 34.1394 23.3772L34.2361 23.4256C34.5019 23.5464 34.7597 23.6672 35.0175 23.8042C35.1706 23.8847 35.3719 23.9814 35.5008 24.1506C35.6458 24.3278 35.6861 24.5453 35.6136 24.7386C35.5411 24.932 35.3719 25.077 35.1464 25.1172C35.0658 25.1333 34.9853 25.1414 34.9047 25.1414C34.7597 25.1414 34.6228 25.1172 34.51 25.0608C34.0992 24.8756 33.6722 24.65 33.1969 24.3842H33.06C32.6653 24.6097 32.1981 24.8675 31.6986 25.077C31.5778 25.1333 31.4569 25.1575 31.3281 25.1575ZM32.0611 20.7028C32.2142 20.7511 32.3994 20.88 32.5283 21.1781C32.7136 21.5889 32.915 21.9917 33.1164 22.3945C33.1244 22.4025 33.1325 22.4186 33.1406 22.4267C33.5111 21.9192 33.7447 21.3553 33.8575 20.7028C33.7286 20.7028 32.0611 20.7028 32.0611 20.7028Z" fill="#00C4E3"/>
<path d="M21.1137 31.6744C20.9445 31.6744 20.7834 31.6099 20.6626 31.481C20.574 31.3924 20.5337 31.2958 20.4934 31.2071L20.4128 31.0541L20.4692 30.8446C20.4934 30.756 20.5095 30.6835 20.5337 30.611L20.6062 30.4177C21.2265 28.718 21.8467 27.0102 22.467 25.3105C22.5395 25.1091 22.6765 24.9319 22.8295 24.8432C22.9262 24.7788 23.047 24.7466 23.1598 24.7466C23.4337 24.7466 23.6915 24.9399 23.8042 25.246C23.9412 25.6166 24.0781 25.9871 24.2151 26.3657L25.7537 30.5949C25.7859 30.6835 25.802 30.7319 25.8181 30.7721C25.9228 31.1427 25.7537 31.4971 25.4073 31.626C25.3267 31.6582 25.2462 31.6744 25.1656 31.6744C24.8837 31.6744 24.634 31.4971 24.5292 31.2071C24.344 30.7319 24.1667 30.2566 24.0056 29.7732C23.9653 29.6524 23.9492 29.6524 23.8526 29.6524C23.5948 29.6605 23.3612 29.6685 23.1276 29.6685C22.894 29.6685 22.6684 29.6605 22.4428 29.6524C22.4348 29.6524 22.4348 29.6524 22.4267 29.6524C22.3381 29.6524 22.322 29.6605 22.2898 29.7732C22.1287 30.2566 21.9515 30.7319 21.7662 31.2071C21.6453 31.4891 21.3956 31.6744 21.1137 31.6744ZM23.4498 28.2749L23.1437 27.4291L22.8376 28.2749H23.4498Z" fill="#00C4E3"/>
</g>
</g>
<defs>
<clipPath id="clip0_421_20">
<rect width="58" height="58" fill="white"/>
</clipPath>
<clipPath id="clip1_421_20">
<rect width="58" height="58" fill="white"/>
</clipPath>
</defs>
</svg>
