<?xml version="1.0" encoding="UTF-8"?>
<svg width="238px" height="65px" viewBox="0 0 238 65" version="1.1" xmlns="http://www.w3.org/2000/svg" xmlns:xlink="http://www.w3.org/1999/xlink">
    <title>91DA0C2C-5310-47DE-A1C0-BAF86031C39B</title>
    <g id="Sign-in---visual-designs" stroke="none" stroke-width="1" fill="none" fill-rule="evenodd">
        <g id="01_signin_lrg_res_teal" transform="translate(-777.000000, -304.000000)">
            <g id="sign_in_card" transform="translate(704.000000, 263.000000)">
                <g id="Savvas_LC_Logo_4c_p" transform="translate(73.000000, 41.000000)">
                    <polyline id="Fill-1" fill="#697981" points="56 9.99227778 67.2488384 39 77 39 61.4900602 1 50.5094067 1 35 39 59.4784066 39 56.421205 31.0986389 47.8152944 31.0986389 56 9.99227778"></polyline>
                    <polyline id="Fill-2" fill="#697981" points="180.999733 9.99227778 169.751038 39 160 39 175.509743 1 186.489724 1 202 39 177.521371 39 180.579067 31.0986389 189.184868 31.0986389 180.999733 9.99227778"></polyline>
                    <polyline id="Fill-3" fill="#697981" points="75 1 90.5094067 39 101.49006 39 117 1 107.248838 1 96 30.0077222 84.7511616 1 75 1"></polyline>
                    <polyline id="Fill-4" fill="#697981" points="120 1 135.50994 39 146.49006 39 162 1 152.248838 1 141 30.0077222 129.751162 1 120 1"></polyline>
                    <path d="M19.4847027,15.6477643 L17.5083276,15.3488456 C12.8974837,14.6323815 9.60387422,13.9754921 9.60387422,11.6463305 C9.66355813,9.31716893 12.2985504,8.00286752 16.2507771,8.00286752 C20.3228952,8.00286752 24.1264357,9.29051709 27.3598377,11.2016106 L30.4272766,3.62203701 C25.6860705,1.1084029 21.2380485,0 15.8916266,0 C6.72962272,0 0.141880174,4.83756985 0.141880174,12.3627946 C0.141880174,18.8130619 5.05271424,22.336853 12.4781257,23.3522357 L14.5141847,23.6506318 C19.5443866,24.3670959 22.4186381,25.1436573 22.4186381,27.3536695 C22.4186381,29.802503 19.5443866,31.0567072 15.7717352,31.0567072 C10.3823828,31.0567072 6.10241811,29.166517 3.16795916,27.0761768 L0,34.9065913 C4.19358005,37.6172399 9.94470076,39 15.6518439,39 C24.0358627,39 32,35.1772903 32,26.3978614 C32,20.3060874 26.9095907,16.9019684 19.4847027,15.6477643" id="Fill-5" fill="#697981"></path>
                    <path d="M225.484703,15.6477643 L223.508328,15.3488456 C218.897484,14.6323815 215.603874,13.9754921 215.603874,11.6463305 C215.663558,9.31716893 218.29855,8.00286752 222.250777,8.00286752 C226.322895,8.00286752 230.126436,9.29051709 233.360361,11.2016106 L236.4278,3.62203701 C231.68607,1.1084029 227.238572,0 221.891627,0 C212.729623,0 206.142404,4.83756985 206.142404,12.3627946 C206.142404,18.8130619 211.053238,22.336853 218.478126,23.3522357 L220.514185,23.6506318 C225.544387,24.3670959 228.419162,25.1436573 228.419162,27.3536695 C228.419162,29.802503 225.544387,31.0567072 221.771735,31.0567072 C216.382383,31.0567072 212.102942,29.166517 209.168483,27.0761768 L206,34.9065913 C210.194104,37.6172399 215.944701,39 221.652367,39 C230.035863,39 238,35.1772903 238,26.3978614 C238,20.3060874 232.910114,16.9019684 225.484703,15.6477643" id="Fill-6" fill="#697981"></path>
                    <polyline id="Fill-7" fill="#008EC4" points="9 65 0 65 0 52 1.61966704 52 1.61966704 63.4491038 9 63.4491038 9 65"></polyline>
                    <polyline id="Fill-8" fill="#008EC4" points="23 65 14 65 14 52 22.9101691 52 22.9101691 53.53193 15.593706 53.53193 15.593706 57.6828262 22.6744951 57.6828262 22.6744951 59.2245102 15.593706 59.2245102 15.593706 63.46807 23 63.46807 23 65"></polyline>
                    <path d="M31.5611706,59.9024177 L36.3769499,59.9024177 L33.9734433,53.6159233 L31.5611706,59.9024177 Z M40,65 L38.329251,65 L36.9689313,61.452772 L30.9691891,61.452772 L29.61712,65 L28,65 L33.0277169,52 L34.9630012,52 L40,65 L40,65 Z" id="Fill-9" fill="#008EC4"></path>
                    <path d="M46.513892,53.53193 L46.513892,57.9060859 L49.7495537,57.9060859 C51.5215354,57.9060859 52.4253515,57.1441851 52.4253515,55.6864944 C52.4253515,54.247228 51.4959272,53.53193 49.7495537,53.53193 L46.513892,53.53193 Z M49.7836978,52 C52.502678,52 54,53.3189662 54,55.6864944 C54,57.9429346 52.3736331,59.3914131 49.7922339,59.3914131 L49.6973332,59.3914131 L53.9397456,65 L52.063825,65 L47.9253515,59.3914131 L46.513892,59.3914131 L46.513892,65 L45,65 L45,52 L49.7836978,52 L49.7836978,52 Z" id="Fill-10" fill="#008EC4"></path>
                    <polyline id="Fill-11" fill="#008EC4" points="70 65 68.6550805 65 61.497482 54.7999001 61.4890886 64.9908005 60 64.9908005 60 52 61.3454133 52 68.5114052 62.1995588 68.5114052 52.0086584 70 52.0086584 70 65"></polyline>
                    <polygon id="Fill-12" fill="#008EC4" points="76 65 78 65 78 52 76 52"></polygon>
                    <polyline id="Fill-13" fill="#008EC4" points="95 65 93.6550141 65 86.4975559 54.7999001 86.4886683 64.9908005 85 64.9908005 85 52 86.3449859 52 93.5113317 62.1995588 93.5113317 52.0086584 95 52.0086584 95 65"></polyline>
                    <path d="M111.773861,54.0927831 L110.574837,55.2205168 C109.673536,54.173862 108.307484,53.5241779 106.736985,53.5241779 C103.874729,53.5241779 101.709328,55.5364086 101.709328,58.5042119 C101.709328,61.4725417 103.874729,63.4842459 106.66269,63.4842459 C109.319957,63.4842459 110.955531,61.9869188 111.206616,59.5145391 L107.303688,59.5145391 L107.303688,58.0356391 L112.981562,58.0356391 C112.990781,58.1704196 113,58.3057266 113,58.4326098 C113,62.1037988 110.603037,65 106.66269,65 C103.252169,65 100,62.6271262 100,58.5042119 C100,54.7061396 102.871475,52 106.736985,52 C108.799892,52 110.593275,52.7844646 111.773861,54.0927831" id="Fill-14" fill="#008EC4"></path>
                    <path d="M138,54.6143106 L136.64095,55.506617 C135.799838,54.289692 134.376045,53.5231292 132.702455,53.5231292 C129.855409,53.5231292 127.701106,55.5339755 127.701106,58.4997369 C127.701106,61.4660245 129.855409,63.4763447 132.702455,63.4763447 C134.367413,63.4763447 135.781494,62.7371403 136.632317,61.501801 L137.963313,62.4482982 C136.872404,64.0261443 134.939844,65 132.702455,65 C128.819531,65 126,62.2773079 126,58.4997369 C126,54.7226921 128.819531,52 132.702455,52 C134.967899,52 136.983005,52.9917439 138,54.6143106" id="Fill-15" fill="#008EC4"></path>
                    <path d="M142.649133,58.4997369 C142.649133,61.4660245 144.738278,63.4763447 147.499738,63.4763447 C150.261199,63.4763447 152.349821,61.4660245 152.349821,58.4997369 C152.349821,55.5339755 150.261199,53.5231292 147.499738,53.5231292 C144.738278,53.5231292 142.649133,55.5339755 142.649133,58.4997369 Z M154,58.4997369 C154,62.2773079 151.265223,65 147.499738,65 C143.734254,65 141,62.2773079 141,58.4997369 C141,54.7226921 143.734254,52 147.499738,52 C151.265223,52 154,54.7226921 154,58.4997369 L154,58.4997369 Z" id="Fill-16" fill="#008EC4"></path>
                    <polyline id="Fill-17" fill="#008EC4" points="174 65 172.4503 65 172.4503 53.8184621 168.31931 63.598517 166.681204 63.598517 162.550214 53.8926518 162.550214 65 161 65 161 52 163.369524 52 167.5 61.6966592 171.63099 52 174 52 174 65"></polyline>
                    <path d="M180.542448,53.541684 L180.542448,58.2588579 L183.627344,58.2588579 C185.441357,58.2588579 186.396181,57.4785327 186.396181,55.9 C186.396181,54.3214673 185.441357,53.541684 183.627344,53.541684 L180.542448,53.541684 Z M180.542448,59.8005419 L180.542448,65 L179,65 L179,52 L183.662121,52 C186.431469,52 188,53.4674448 188,55.9 C188,58.3330971 186.431469,59.8005419 183.662121,59.8005419 L180.542448,59.8005419 L180.542448,59.8005419 Z" id="Fill-18" fill="#008EC4"></path>
                    <path d="M194.561171,59.9024177 L199.37695,59.9024177 L196.973443,53.6159233 L194.561171,59.9024177 Z M203,65 L201.329251,65 L199.968931,61.452772 L193.969189,61.452772 L192.61712,65 L191,65 L196.027717,52 L197.963001,52 L203,65 L203,65 Z" id="Fill-19" fill="#008EC4"></path>
                    <polyline id="Fill-20" fill="#008EC4" points="219 65 217.655014 65 210.497556 54.7999001 210.488668 64.9908005 209 64.9908005 209 52 210.344986 52 217.511332 62.1995588 217.511332 52.0086584 219 52.0086584 219 65"></polyline>
                    <polyline id="Fill-21" fill="#008EC4" points="230.275509 59.5957065 230.275509 65 228.758701 65 228.758701 59.5772822 224 52 225.81866 52 229.525909 58.0822009 233.232655 52 235 52 230.275509 59.5957065"></polyline>
                </g>
            </g>
        </g>
    </g>
</svg>